<?xml version="1.0" standalone="no"?>
<!DOCTYPE svg PUBLIC "-//W3C//DTD SVG 1.1//EN" "http://www.w3.org/Graphics/SVG/1.1/DTD/svg11.dtd" >
<svg>
<metadata>
Created by FontForge 20090914 at Thu Feb 23 20:40:00 2012
 By root
Freeware! from A. Carr    Remember to vote! If you don't vote, you can't bitch!
</metadata>
<defs>
<font id="Frankfurt" horiz-adv-x="0" >
  <font-face 
    font-family="Frankfurt"
    font-weight="400"
    font-stretch="normal"
    units-per-em="4096"
    panose-1="0 11 0 0 0 0 0 0 0 0"
    ascent="3276"
    descent="-820"
    x-height="1913"
    cap-height="2753"
    bbox="-57 -438 3752 3871"
    underline-thickness="50"
    underline-position="-75"
    unicode-range="U+0020-U+007E"
  />
<missing-glyph horiz-adv-x="3072" 
d="M512 0v2560h2048v-2560h-2048zM2494 66v2428h-1916v-2428h1916z" />
    <glyph glyph-name=".notdef" horiz-adv-x="3072" 
d="M512 0v2560h2048v-2560h-2048zM2494 66v2428h-1916v-2428h1916z" />
    <glyph glyph-name=".null" 
 />
    <glyph glyph-name="nonmarkingreturn" 
 />
    <glyph glyph-name="grave" unicode="`" horiz-adv-x="1090" 
d="M553 3842q90 -45 246 -242q143 -184 143 -303v-16q-4 -107 -86 -189q-82 -81 -192 -90h-21q-98 0 -172 70q-53 49 -90 94q-41 45 -82 98.5l-66 86.5q-102 122 -102 233q0 106 94 201q94 86 201 86q61 0 127 -29zM578 3592q24 -41 65 -86q41 -49 78 -98q53 -74 57 -115
q0 -12 -8 -20q-29 -37 -98 -74q-37 -16 -37 -37q0 -8 8 -20q16 -21 45 -21q17 0 41 8q131 58 131 164q0 21 -4 41q-12 41 -74 131q-28 58 -143 168q-25 25 -45 25q-21 0 -29 -21q-4 -4 -4 -12q0 -16 17 -33zM504 3760q-58 0 -58 -49q0 -45 58 -45q49 0 49 45q0 49 -49 49z
" />
    <glyph glyph-name="one" unicode="1" horiz-adv-x="1401" 
d="M311 2535q-37 0 -61.5 -24.5t-24.5 -61.5q0 -82 86 -82q82 0 82 82q0 86 -82 86zM303 1921q-221 94 -262 295q-8 45 -8 90q0 148 98 270q131 160 356 160q365 0 545 -65q176 -70 176 -422v-1819q0 -192 -135 -315t-315 -123q-185 0 -320 147q-135 148 -135 430v1352z
M471 1929v-1450q0 -168 86 -258q70 -74 168 -74q25 0 49 5q57 8 66 65v12q0 45 -58 58q-90 8 -135 45q-49 37 -49 155v1434q0 111 -45 164q-45 49 -123 90t-94 74q-21 57 -70 57h-8q-53 -8 -61 -65v-9q0 -57 73 -118q33 -25 90 -54q54 -32 82 -57q29 -25 29 -74z" />
    <glyph glyph-name="two" unicode="2" horiz-adv-x="2232" 
d="M504 2417q-78 0 -78 -82q0 -86 78 -86q24 0 53 24q29 25 29 62q0 24 -13 41q-12 16 -28 28q-17 13 -41 13zM152 2232q143 299 417 447q242 127 508 127q37 0 74 -4q307 -25 557 -209q246 -185 340 -512q45 -168 45 -316q0 -106 -25 -200q-61 -230 -172 -373
q-114 -143 -327 -344h53q250 0 369 -131q106 -127 106 -299v-25q-8 -180 -123 -287q-119 -106 -344 -106h-1044q-242 0 -353 131q-102 119 -102 275v32q8 172 111 283l839 901l41 49q21 21 45 53q21 33 25 66v8q0 29 -25 57q-37 54 -90 54h-20q-70 -13 -119 -111
q-131 -233 -369 -233h-8q-242 4 -381 209q-78 114 -78 241q0 103 50 217zM303 2175q-41 -90 -41 -172q0 -37 8 -74q29 -110 127 -172q78 -53 164 -53q21 0 41 4q103 12 189 123q20 33 20 57q0 29 -20 49q-13 21 -41 21q-33 0 -54 -21q-73 -65 -118 -86q-13 -4 -25 -4
q-41 0 -98 49q-54 50 -54 115q0 57 37 123q13 20 13 37q0 33 -41 53q-13 8 -29 8q-12 0 -25 -4q-32 -16 -53 -53zM1294 1618l-909 -1012q-94 -106 -94 -196q0 -21 4 -41q24 -107 98 -107q41 4 58 45q4 12 4 29q0 29 -17 57q-4 8 -4 21q0 37 45 98l897 975q115 135 115 287
v20q-12 164 -127 283q-119 114 -291 114q-78 0 -102 -32q-17 -21 -17 -41q0 -17 13 -33q20 -37 57 -37h8h41q123 0 193 -66q82 -81 90 -188v-16q0 -99 -62 -160zM897 295q-115 0 -115 -78q9 -65 90 -65h824q131 0 176 61q24 33 24 61q0 25 -16 50q-25 32 -49 32
q-16 0 -37 -12q-16 -12 -33 -29q-20 -20 -49 -20h-815z" />
    <glyph glyph-name="three" unicode="3" horiz-adv-x="2114" 
d="M410 2626q274 192 561 192q53 0 106 -8q344 -45 590 -275q242 -233 287 -532q8 -45 8 -90q0 -250 -193 -463q185 -172 230 -418q12 -65 12 -131q0 -184 -82 -364q-110 -250 -352 -426q-225 -168 -520 -181h-66q-262 0 -495 123q-263 135 -394 377q-77 160 -77 295
q0 61 16 119q53 180 217 270q111 62 225 62q58 0 119 -17q176 -49 279 -246q37 -82 102 -82q16 0 37 9q86 24 98 123v8q0 90 -110 135q-168 70 -209 180q-21 49 -21 98q0 62 29 123q49 111 135 148q119 49 139 82q21 32 21 65q0 25 -12 49q-29 54 -78 66q-13 4 -25 4
q-37 0 -65 -33q-21 -16 -70 -82q-53 -65 -82 -86q-123 -94 -258 -94q-49 0 -98 12q-193 41 -295 205q-66 103 -66 225q0 74 21 152q61 217 336 406zM201 696q12 -229 221 -405q209 -180 496 -217q57 -8 110 -8q217 0 397 118q66 45 66 86q0 21 -12 41q-13 21 -41 21
q-41 0 -103 -37q-139 -82 -299 -82q-69 0 -139 16q-242 45 -410 201q-151 139 -151 287v28q4 21 4 41q0 25 -4 45q-12 41 -57 41q-82 0 -82 -131q0 -20 4 -45zM999 1282q201 -147 209 -156q74 -65 74 -163q0 -17 -4 -37q-21 -123 -102 -189q-50 -37 -50 -69q0 -29 33 -54
q29 -16 53 -16q58 0 115 74q103 123 103 323q-5 197 -279 340q-66 33 -66 86v9v8q0 45 -36 57q-21 8 -37 8q-49 0 -70 -73q-4 -25 -4 -46q0 -65 61 -102zM913 2191q-61 -20 -61 -65q0 -12 4 -25q12 -53 62 -53h20q41 12 78 12q57 0 102 -28q74 -50 111 -119q37 -74 37 -127
q0 -70 53 -70q12 0 24 4q58 17 58 95q0 90 -62 196q-65 107 -176 164q-65 33 -139 33q-53 0 -111 -17zM233 2130q-8 -49 -8 -90q0 -94 49 -160q70 -98 193 -111q20 -4 41 -4q98 0 164 50q28 20 41 57q4 12 4 20q0 25 -21 45q-28 33 -53 33q-20 0 -37 -24q-28 -41 -82 -41
q-32 0 -73 16q-86 33 -86 119q0 24 4 49q4 16 4 29q0 57 -62 65q-12 4 -20 4q-45 0 -58 -57zM418 2384q-82 0 -82 -78q0 -82 82 -82q78 0 78 82q0 78 -78 78z" />
    <glyph glyph-name="four" unicode="4" horiz-adv-x="2486" 
d="M135 1495q0 74 82 225l406 774q90 168 196 205q107 37 279 37h590q254 0 340 -164t86 -364v-783q278 -61 356 -266q33 -82 33 -160q0 -122 -74 -237q-119 -193 -315 -193v-16q0 -287 -136 -438q-131 -144 -311 -144h-29q-196 13 -327 181q-107 135 -107 331q0 41 4 86
h-602q-196 0 -332 103q-139 102 -139 344v479zM1208 1806l-192 -381h192v381zM1360 1962v-512q0 -90 74 -90q61 0 61 102v484q0 49 -33 73q-20 17 -41 17q-16 0 -28 -8q-33 -17 -33 -66zM2167 905q-17 -12 -103 -49q-32 -12 -32 -37q0 -16 20 -45q29 -37 66 -37q28 0 65 17
q82 41 90 77v17q0 20 -4 33q-8 16 -20 24q-17 8 -41 8q-29 0 -41 -8zM872 872q-53 0 -69 -32q-8 -17 -8 -33q-4 -21 8 -41q20 -37 69 -37h336q95 0 127 -45q33 -49 33 -131v-25q0 -323 225 -368q21 -4 37 -4q33 0 58 16q24 25 24 53v17q-12 41 -65 53q-78 29 -119 74
q-29 28 -29 102q0 29 4 66q4 20 4 45q0 90 -41 180q-53 110 -258 110h-336zM295 1470v-479q0 -90 33 -131q24 -37 57 -37h8q37 4 53 33q13 21 13 57q0 21 -4 45q-17 70 -17 107v352q0 119 33 176l328 615q20 37 20 61q0 33 -28 49q-21 13 -41 13q-41 0 -70 -58l-320 -602
q-65 -98 -65 -201zM864 2535q-90 0 -90 -86q0 -90 90 -90q86 0 86 90q0 37 -24.5 61.5t-61.5 24.5z" />
    <glyph glyph-name="five" unicode="5" horiz-adv-x="2150" 
d="M672 2736h905q233 0 348 -123q107 -119 107 -266v-25q-13 -168 -127 -294q-119 -132 -295 -132h-459q504 -69 709 -331q192 -250 192 -545v-33q-16 -315 -139 -541q-119 -208 -328 -348q-213 -143 -475 -155h-41q-504 0 -774 290q-94 99 -139 222q-37 90 -37 180
q0 29 4 61q12 123 94 209q135 152 320 156h8q176 0 352 -148q74 -61 135 -61h17q65 8 86 78q12 33 12 61q0 148 -332 193q-16 4 -188 24q-172 17 -271 54q-98 32 -151 122q-37 58 -37 148q0 41 8 86l127 856q25 262 369 262zM1049 2175q-54 0 -74 -33q-8 -16 -8 -33
q0 -20 12 -36q20 -33 70 -33h536q94 0 152 41q53 37 65 90q4 12 4 24q0 37 -28 62q-13 8 -25 8q-24 0 -65 -37q-58 -53 -111 -53h-528zM418 2232l-90 -639v-20q0 -53 16 -90q21 -45 57 -53h17q24 0 37 20q24 25 24 61v9q-4 36 -8 98l82 606v8q0 41 -29 62q-20 16 -41 16
q-12 0 -24 -4q-37 -16 -41 -74zM680 1479h-16q-37 0 -58 -29q-16 -20 -16 -41q0 -16 8 -29q16 -37 82 -45q348 -12 471 -86q147 -90 156 -237v-17q0 -139 -66 -221q-20 -29 -20 -53q0 -12 4 -25q12 -41 57 -41t78 50q82 110 82 294v33q-12 201 -217 336q-140 98 -545 111z
M287 696v-41q0 -196 159 -348q177 -164 455 -201q70 -12 139 -12q201 0 377 90q17 4 41 37q12 17 12 33q0 12 -8 25q-8 32 -57 32t-139 -32q-111 -41 -238 -41q-57 0 -119 8q-192 24 -331 139q-144 115 -148 279q4 24 4 57t-8 53q-12 17 -49 17q-90 0 -90 -95zM545 2535
q-82 0 -82 -86q0 -82 82 -82q86 0 86 82q0 37 -25 62q-24 24 -61 24z" />
    <glyph glyph-name="six" unicode="6" horiz-adv-x="2232" 
d="M647 2511q131 266 381 295q29 4 53 4q213 0 349 -176q90 -119 90 -271q0 -102 -41 -221l-54 -143q484 -164 656 -533q102 -225 102 -454q0 -152 -45 -307q-115 -390 -409 -586q-295 -193 -603 -193q-41 0 -82 4q-352 29 -618 258q-270 226 -352 578q-25 111 -25 225
q0 242 119 496zM1118 1151q-65 0 -110 -45q-50 -49 -50 -115q0 -61 49.5 -110.5t110.5 -49.5q66 0 115 50q49 45 49 110q0 74 -45 119q-49 41 -119 41zM1081 1450q-98 -8 -98 -82q0 -65 98 -65q25 4 49 4q115 0 193 -70q94 -82 111 -209v-41q4 -102 -50 -180
q-24 -33 -24 -62q0 -12 4 -24q12 -37 45 -37h16q45 4 86 61q70 95 74 218q0 118 -57.5 237t-171.5 193q-99 57 -226 57h-49zM737 2327l-434 -967q-86 -197 -86 -385q0 -94 21 -184q65 -275 278 -463q213 -193 492 -234q61 -8 122 -8q213 0 406 107q61 36 61 77q0 21 -12 41
q-12 29 -41 33q-33 0 -74 -25q-167 -94 -344 -94q-122 0 -249 45q-308 111 -451 406q-74 143 -74 295q0 155 74 315l455 1012q12 29 12 53q0 37 -37 49q-16 8 -33 8q-53 0 -86 -81zM942 2609q-37 0 -61 -29q-25 -28 -25 -61q0 -78 86 -78q82 0 82 78q0 90 -82 90z" />
    <glyph glyph-name="seven" unicode="7" horiz-adv-x="2023" 
d="M504 2736h999q217 0 336 -106.5t139 -282.5q4 -41 4 -82q0 -143 -53 -291l-602 -1695q-61 -181 -237 -254q-78 -33 -160 -33q-111 0 -234 57q-155 70 -217 234q-28 69 -28 147q0 102 45 217l462 1241h-520q-188 0 -299 131q-114 127 -114 299q0 168 122 295
q123 123 357 123zM471 2191q-127 0 -135 99q-12 45 -53 45h-17q-57 -8 -57 -86q0 -74 78 -131q78 -62 209 -62h426q102 0 102 66q0 69 -94 69h-459zM1110 1864l-479 -1258q-25 -74 -25 -139q0 -94 58 -168q98 -123 192 -131q37 -8 62 -8q40 0 57 24q29 17 29 41q0 8 -5 21
q-12 37 -49 49q-98 8 -168 74q-41 37 -41 98q0 41 21 94l471 1217q29 69 29 127q0 61 -37 110q-29 53 -70 53q-12 0 -25 -8q-45 -20 -45 -61q0 -8 5 -17q8 -12 16 -36.5t8 -40.5q0 -21 -4 -41zM319 2544q-32 0 -53 -25q-24 -25 -24 -61q0 -33 24 -58q25 -24 53 -24
q82 0 82 82q0 86 -82 86z" />
    <glyph glyph-name="eight" unicode="8" horiz-adv-x="2241" 
d="M336 1450q-176 188 -189 414v57q0 193 103 381q119 213 344 356q225 140 496 144h16q352 0 631 -222q282 -225 344 -548q12 -62 12 -123q0 -250 -197 -455q209 -229 234 -496q4 -36 4 -73q0 -230 -119 -439q-139 -241 -389 -385q-242 -143 -545 -143h-16q-246 4 -479 156
q-234 147 -365 377q-115 196 -115 426q0 36 5 73q16 267 225 500zM385 2175q-82 -135 -82 -262q0 -53 16 -107q46 -180 136 -270q32 -33 57 -33q20 0 41 17q33 32 33 61q0 25 -25 49q-123 123 -123 266q0 103 66 218q12 24 12 45q0 28 -33 53q-16 12 -32 12q-37 0 -66 -49z
M1081 2208q-73 -4 -98 -45q-16 -21 -16 -41q0 -21 12 -37q16 -29 57 -29h21q28 4 53 4q102 0 176 -53q86 -65 94 -176v-25q0 -98 -53 -176q-12 -20 -12 -37q0 -32 37 -57q20 -16 41 -16q32 0 57 32q78 103 78 230q0 28 -4 57q-21 160 -140 270q-110 99 -270 99h-33z
M410 1274q-140 -184 -140 -385q0 -49 9 -98q36 -259 237 -451q201 -197 479 -250q78 -16 156 -16q192 0 377 94q65 37 65 78q0 20 -16 40.5t-45 28.5q-8 4 -16 4q-21 0 -37 -16q-156 -90 -328 -94q-57 0 -119 12q-237 37 -409 192.5t-205 372.5q-8 45 -8 86q0 168 118 320
q37 49 37 90q0 25 -12 45q-16 21 -41 21h-16q-41 -13 -86 -74zM1081 1352q-86 -17 -86 -70v-16q13 -58 66 -58h20q25 4 45 4q99 0 168 -61q82 -74 95 -180v-29q0 -90 -46 -151q-24 -33 -24 -58q0 -16 8 -28q16 -37 57 -37h9q45 4 77 53q66 102 66 213q0 98 -49 201
q-49 110 -168 176q-90 45 -180 45q-29 0 -58 -4zM1118 1921q-45 0 -78 -33q-32 -37 -32 -82q0 -49 36 -82q33 -36 74 -36q45 0 82 36q33 33 33 82q0 45 -29 82q-33 33 -86 33zM569 2408q-32 0 -57 -28.5t-25 -61.5q0 -20 29 -49q29 -28 53 -28q29 0 58 24q28 25 28 53
q0 41 -24.5 65.5t-61.5 24.5zM1118 1065q-49 0 -82 -37q-37 -37 -37 -86q0 -45 37 -82t82 -37q49 0 86 37q37 33 37 82q0 57 -33 90q-32 33 -90 33z" />
    <glyph glyph-name="nine" unicode="9" horiz-adv-x="2241" 
d="M696 770q-168 86 -217 119q-250 180 -352 459q-74 188 -74 389q0 90 17 184q45 295 245 533q201 233 516 315q156 41 304 41q188 0 364 -66q311 -123 492 -377q180 -258 196 -577v-49q0 -295 -164 -557l-639 -1016q-118 -188 -315 -225q-53 -13 -106 -13q-136 0 -246 78
q-160 103 -180 311q-5 25 -5 50q0 184 164 401zM831 696q-73 -86 -110 -209q-25 -57 -25 -114q0 -74 41 -148q66 -127 185 -139q73 0 102 25q20 20 20 49q0 28 -20 49q-20 16 -66 16q-65 0 -98 74q-16 33 -16 74q0 45 20 98q8 29 78 152q16 28 16 49q0 16 -8 28
q-16 29 -53 29t-66 -33zM1098 2175q-58 -4 -82 -37q-12 -16 -12 -33q0 -20 12 -37q16 -28 57 -28h8h17q143 0 229 -78q86 -86 98 -201v-28q0 -99 -49 -164q-28 -37 -28 -66q0 -12 4 -24q12 -45 57 -49h8q41 0 70 40q82 127 82 267q0 32 -4 65q-29 172 -164 283
q-119 94 -262 94q-21 0 -41 -4zM1118 1896q-65 0 -110 -49q-50 -49 -50 -110q0 -66 50 -111q45 -49 110 -49q70 0 119 45q45 45 45 115q0 69 -45 114t-119 45zM545 2425q-37 0 -62 -25q-28 -28 -28 -65q0 -86 90 -86q28 0 57 24q29 25 29 62q0 41 -25 65q-24 25 -61 25z
M336 2183q-127 -246 -127 -463q0 -159 70 -307q159 -348 409 -471q86 -41 115 -41h8q20 0 37 37q8 12 8 25q0 53 -111 102q-200 98 -339 401q-58 123 -58 258q0 193 115 410q12 29 12 49q0 17 -8 33q-16 29 -53 29h-8q-41 -9 -70 -62z" />
    <glyph glyph-name="zero" unicode="0" horiz-adv-x="3039" 
d="M1217 2134q-111 -33 -127 -78q-5 -12 -5 -24q0 -37 29 -58q16 -12 37 -12q25 0 57 12q160 82 320 82q45 0 86 -4q201 -29 352 -164q152 -135 213 -332q29 -98 29 -196q0 -103 -33 -209q0 -4 -16.5 -45t-16.5 -57q0 -54 49 -66h9q65 0 110 152q37 102 37 213q0 98 -29 200
q-61 221 -209 385q-151 164 -385 230q-94 28 -196 28q-148 0 -311 -57zM426 2015q-188 -340 -188 -647q0 -115 28 -225q94 -406 320 -647q262 -275 553 -353q204 -57 377 -57q69 0 135 8q221 33 397 115q106 49 106 110q0 13 -4 25q-16 33 -41 33h-8q-33 -4 -94 -37
t-127 -53q-168 -62 -344 -62q-143 0 -295 41q-332 94 -569 352q-238 254 -283 607q-8 65 -8 131q0 291 172 598q20 33 41 94v8q0 25 -33 49q-20 17 -41 17q-12 0 -24 -8q-45 -33 -70 -99zM1528 1905q-221 0 -381 -152q-164 -156 -164 -385q0 -217 164 -373
q160 -155 381 -155q225 0 377 155q151 156 151 373q0 148 -69 274q-70 123 -189 193q-123 70 -270 70zM1536 2810q389 0 717 -189q327 -192 520 -520q188 -327 188 -717q0 -397 -184 -729q-188 -331 -516 -524q-328 -197 -725 -197t-729 193q-336 188 -528.5 520t-192.5 721
t197 725q196 332 528 524q332 193 725 193zM664 2290q-78 0 -78 -82q0 -78 78 -78q81 0 81 78q0 82 -81 82z" />
    <glyph glyph-name="hyphen" unicode="-" horiz-adv-x="1106" 
d="M319 1704h463q205 0 291 -160q45 -82 45 -164q0 -77 -41 -155q-86 -160 -295 -160h-413q-238 0 -324 160q-41 78 -41 155q-4 82 41 164q82 160 274 160zM377 1335q-33 0 -53 13q-25 8 -54 32l-45 29q-8 4 -16 4q-25 0 -45 -24q-17 -25 -17 -54q0 -16 5 -32
q45 -103 266 -103h381q53 0 82 33q12 16 12 33q4 16 -12 37q-29 32 -107 32h-397zM242 1618q-82 0 -82 -82t82 -82q20 0 48.5 24.5t28.5 57.5q0 82 -77 82z" />
    <glyph glyph-name="equal" unicode="=" horiz-adv-x="1143" 
d="M328 1335h463q204 0 290 -159q45 -82 45 -164q0 -78 -41 -156q-86 -160 -294 -160h-414q-238 0 -324 160q-41 78 -41 156q-4 82 41 164q82 159 275 159zM385 967q-33 0 -53 12q-25 8 -53 33l-46 28q-8 4 -16 4q-24 0 -45 -24q-16 -25 -16 -49q0 -17 4 -33
q41 -107 266 -107h381q57 0 82 37q12 17 12 33q0 17 -16 33q-33 33 -103 33h-397zM250 1249q-82 0 -82 -82q0 -77 82 -77q78 0 78 77q0 82 -78 82zM328 2175h463q204 0 290 -160q45 -82 45 -164q0 -77 -41 -155q-86 -160 -294 -160h-414q-238 0 -324 160q-41 78 -41 155
q-4 82 41 164q82 160 275 160zM385 1806q-33 0 -53 13q-25 8 -53 32l-46 29q-8 4 -16 4q-24 0 -45 -24q-16 -25 -16 -50q0 -16 4 -32q41 -107 266 -107h381q57 0 82 37q12 16 12 33q0 16 -16 33q-33 32 -103 32h-397zM250 2089q-82 0 -82 -82q0 -78 82 -78q78 0 78 78
q0 82 -78 82z" />
    <glyph glyph-name="q" unicode="q" horiz-adv-x="2335" 
d="M905 1487q-90 -25 -90 -70v-8q0 -41 41 -41q21 0 49 8q115 54 234 54q86 0 172 -29q200 -74 295 -250q49 -94 49 -193q0 -86 -37 -176q-8 -24 -8 -45q0 -37 28 -49h9q49 0 90 94q24 78 24 160q0 119 -53 238q-94 200 -307 299q-115 49 -246 49q-119 0 -250 -41zM311 1409
q-135 -229 -135 -442q0 -86 21 -168q73 -295 233 -455q275 -266 594 -283q53 -4 102 -4q250 0 418 86q107 54 144 54h8q28 -13 102 -86q74 -58 152 -58q61 0 123 33q36 33 41 66q0 28 -25 45q-12 4 -25 4q-16 0 -32 -8q-54 -33 -90 -33q-13 0 -21 4q-45 8 -127 86
q-49 41 -98 41h-8q-58 -4 -127 -33q-70 -33 -127 -57q-140 -45 -279 -45q-106 0 -213 24q-250 58 -430 238t-221 422q-8 53 -8 106q0 193 110 397q21 41 37 66q12 21 16 37q0 12 -16 24q-16 13 -33 13q-37 0 -86 -74zM1143 1327q-168 0 -287 -98.5t-119 -270.5
q0 -163 123 -270q123 -110 291 -110q172 0 283 106q110 107 110 266q0 160 -114 271q-119 106 -287 106zM1176 1962q311 0 602 -197q290 -200 401 -536q45 -135 45 -271q0 -208 -102 -421q155 -103 168 -238v-33q0 -114 -86 -209q-99 -106 -246 -110h-8q-148 0 -287 135
q-279 -139 -537 -139q-32 0 -65 4q-287 20 -520 176q-238 156 -365 385q-119 205 -119 418v41q25 463 336 729q312 266 783 266zM504 1610q-58 0 -58 -66q0 -57 58 -57q65 0 65 57q0 25 -20 45q-21 21 -45 21z" />
    <glyph glyph-name="w" unicode="w" horiz-adv-x="2769" 
d="M1470 983l267 -721q57 -160 209 -160q49 0 57 54v8q0 41 -49 45q-29 4 -62 16q-32 8 -53 62l-262 712q-21 54 -57 54q-13 0 -25 -4q-33 -13 -33 -37q0 -13 8 -29zM1151 1602l-193 -537q-4 -16 -4 -29q0 -37 41 -45h9q45 0 61 49l184 512q8 25 8 41q0 37 -32 54
q-8 4 -17 4q-41 0 -57 -49zM2224 1602l-233 -545q-9 -21 -9 -37q0 -21 9 -33q12 -20 32 -20q9 0 21 4q33 12 53 53l213 520q17 33 17 58q0 28 -29 36q-12 9 -25 9q-28 0 -49 -45zM111 1585l528 -1306q45 -111 90 -140q45 -28 111 -28h8q37 0 57 24q17 21 17 41q0 8 -4 17
q-17 24 -70 24q-66 0 -111 86l-528 1307q-12 37 -41 37q-16 0 -33 -9q-33 -12 -33 -32q0 -9 9 -21zM528 209l-520 1294q-28 70 -28 131q0 70 32 127q58 115 189 156q53 16 106 16q78 0 156 -32q131 -58 201 -222l217 -487l176 496q82 241 319 241h33q135 -4 205 -69
q69 -70 115 -189l184 -495l221 536q66 148 197 197q69 28 139 28q61 0 119 -20q127 -45 192 -156q33 -57 33 -127q0 -61 -29 -131l-495 -1261q-99 -238 -308 -250h-24q-242 0 -320 217l-237 655l-234 -647q-45 -135 -176 -197q-73 -32 -147 -32q-58 0 -115 20
q-135 49 -201 201zM209 1794q61 0 61 -65q0 -58 -61 -58q-57 0 -57 58q0 65 57 65zM2359 1786q-53 0 -53 -57q0 -58 53 -58q49 0 49 58q0 57 -49 57zM1274 1794q53 0 53 -57q0 -58 -53 -58q-57 0 -57 58q0 57 57 57z" />
    <glyph glyph-name="e" unicode="e" horiz-adv-x="1569" 
d="M537 1913h544q430 0 430 -283q0 -311 -352 -311h-352v-127h274q131 0 205 -66q70 -69 74 -163v-9q0 -90 -66 -155q-69 -70 -204 -70h-283v-135h344q176 0 274 -86q95 -86 99 -209v-8q0 -119 -94 -201q-99 -90 -271 -90h-598q-160 0 -242 20q-86 17 -139 103
q-53 82 -53 262v1135q0 139 33 229q28 86 114 127q86 37 263 37zM672 201q-54 0 -54 -41v-8q5 -50 62 -50h471q201 0 201 91v8q0 37 -25 45q-8 4 -16 4q-21 0 -45 -17q-66 -32 -115 -32h-479zM823 938q-53 0 -53 -41q0 -49 53 -49h275q69 0 98 33q12 16 12 28q0 17 -16 29
q-12 12 -29 12q-8 0 -16 -4q-33 -8 -49 -8h-275zM831 1520q-69 0 -69 -50q12 -36 61 -36h344q82 0 131 24q45 25 45 53v9q0 41 -24 53q-8 4 -16 4q-17 0 -29 -8q-74 -49 -115 -49h-328zM258 1561v-1242q0 -110 45 -126h12q13 0 29 4q21 8 33 24q4 4 4 12q0 13 -4 29
q-17 33 -17 107v1192q0 28 -12 45q-16 12 -45 12q-45 0 -45 -57zM352 1769q-57 0 -57 -57t57 -57q58 0 58 57q0 29 -13 45q-16 12 -45 12z" />
    <glyph glyph-name="r" unicode="r" horiz-adv-x="1786" 
d="M127 1585q0 107 78 217q74 111 299 111h471q287 0 500 -193q213 -196 225 -471v-24q0 -267 -221 -488l168 -258q69 -102 69 -196q0 -74 -45 -140q-98 -151 -287 -163h-24q-176 0 -279 155l-274 426v-217q0 -344 -336 -360q-139 0 -242 102q-102 98 -102 291v1208z
M258 1561v-1176q0 -156 49 -217q49 -66 139 -74h29q62 -4 62 49q0 41 -66 50q-111 24 -111 159v1209q0 36 -24 53q-12 4 -25 4q-12 4 -24 -4q-29 -17 -29 -53zM815 1520q-29 0 -41 -21q-8 -12 -8 -24q0 -13 8 -25q12 -25 41 -25q172 0 241.5 -41t82.5 -102q8 -65 12 -115
q8 -37 49 -37h8q45 5 49 54v24q0 131 -90 226q-86 90 -282 90q-33 0 -70 -4zM807 1327v-209h49q176 0 176 107q0 102 -151 102h-74zM823 754l353 -545q41 -62 81 -82q37 -25 103 -33h8q37 0 57 25q13 16 13 33q0 8 -4 20q-13 25 -58 29q-90 16 -119 61l-344 537
q-24 41 -53 41q-33 0 -41 -25q-4 -12 -4 -24q0 -17 8 -37zM352 1769q-57 0 -57 -57t57 -57q58 0 58 57q0 29 -13 45q-16 12 -45 12z" />
    <glyph glyph-name="t" unicode="t" horiz-adv-x="1688" 
d="M201 1778q-66 0 -66 -66q0 -57 66 -57q57 0 57 57q0 66 -57 66zM438 1913h787q307 0 397 -78t90 -217q-4 -143 -102 -221q-103 -78 -258 -78h-168v-959v-8q0 -229 -164 -319q-86 -49 -176 -49q-82 0 -164 41q-176 86 -176 303v991h-193q-172 0 -258 111q-73 94 -73 204
v33q12 131 106 180q119 66 352 66zM1208 1520q-82 0 -82 -50q0 -36 74 -36h193q49 0 106 24q49 21 49 53q0 9 -4 17q-12 45 -45 45q-8 0 -20 -4q-4 0 -45 -25q-45 -24 -74 -24h-152zM303 1520q-20 0 -33 4q-12 4 -28 20q-17 17 -33 49q-16 29 -41 29q-8 0 -21 -4
q-36 -16 -36 -49v-8q8 -127 208 -127h160q82 0 82 53q0 33 -90 33h-168zM623 1286v-901q0 -291 208 -291q66 0 66 49q0 45 -66 50q-102 12 -102 184v909q0 82 -57 82q-49 0 -49 -82z" />
    <glyph glyph-name="y" unicode="y" horiz-adv-x="1671" 
d="M25 1442q-66 86 -66 172q0 37 12 74q33 122 148 192q82 49 172 49q45 0 90 -12q135 -37 213 -139l246 -324l241 332q95 127 242 143q20 4 41 4q119 0 213 -78q143 -110 143 -233q0 -90 -73 -188l-480 -635v-447q0 -237 -168 -323q-86 -45 -168 -45q-86 0 -172 45
q-172 86 -172 307v463zM1098 1618l-185 -250q-20 -29 -20 -53q0 -21 16 -33q17 -12 33 -12q21 0 41 24l201 267q16 24 20 45q0 8 -4 16q-12 25 -41 29h-8q-25 0 -53 -33zM111 1511q8 -8 258 -344q245 -336 245 -344v-479q0 -115 62 -176q57 -66 139 -66h8q33 0 49 25
q13 20 13 41q0 8 -4 16q-13 25 -50 25q-57 8 -86 33q-32 20 -32 110v496q0 33 -66 123l-205 274q-139 180 -241 324q-8 16 -17 28l-16 25q-12 8 -33 8q-53 0 -53 -41q0 -28 29 -78zM193 1786q-58 0 -58 -66q0 -57 58 -57q65 0 65 57q0 66 -65 66zM1257 1786q-65 0 -65 -57
q0 -66 65 -66q54 0 54 66q0 57 -54 57z" />
    <glyph glyph-name="u" unicode="u" horiz-adv-x="1954" 
d="M119 1552q0 197 98 287q94 90 238 90q151 -4 245 -106q91 -103 91 -254v-778q0 -140 90 -189q45 -29 94 -29q45 0 90 25q94 49 94 176v803q0 229 168 315q82 41 168 41t172 -45q172 -90 172 -303v-778q0 -393 -242 -614q-245 -222 -565 -242q-33 -4 -65 -4
q-303 0 -561 217q-287 233 -287 598v790zM1274 1561v-791q0 -111 -90 -225q-13 -17 -13 -29q0 -16 13 -33q20 -20 41 -20h8q57 12 106 110q45 99 45 209v779q0 36 -24 49q-12 4 -25 4q-16 4 -32 -4q-29 -13 -29 -49zM242 1552q0 54 53 54q49 0 49 -45v-770q0 -267 139 -418
q140 -156 344 -197q78 -16 152 -16q119 0 229 41q17 8 29 8q16 0 29 -8q24 -17 24 -41q-4 -29 -41 -49q-106 -50 -250 -50q-73 0 -155 13q-246 41 -422 217q-180 176 -180 463v798zM352 1761q29 0 45 -12q13 -16 13 -45q0 -57 -58 -57q-57 0 -57 57t57 57zM1376 1761
q-57 0 -57 -57t57 -57q58 0 58 57q0 29 -13 45q-16 12 -45 12z" />
    <glyph glyph-name="i" unicode="i" horiz-adv-x="942" 
d="M258 1552v-1208q0 -233 172 -250h21q32 -4 48.5 16.5t16.5 45.5v8q-4 29 -37 37q-61 8 -90 37q-29 24 -29 114v1209q0 61 -49 61q-53 0 -53 -70zM807 1552v-1208q0 -221 -168 -315q-86 -49 -176 -49q-82 0 -164 40q-172 86 -172 308v1233q0 360 352 360q328 -12 328 -369
zM360 1769q-57 0 -57 -57t57 -57q58 0 58 57q0 29 -12 45q-17 12 -46 12z" />
    <glyph glyph-name="o" unicode="o" horiz-adv-x="2273" 
d="M897 1487q-74 -17 -90 -45q-4 -8 -4 -17q0 -24 24 -41q17 -8 33 -8q17 -4 37 8q115 58 233 58q82 0 164 -29q201 -70 299 -246q58 -106 58 -217q0 -73 -29 -151q-20 -41 -20 -62v-8q0 -20 28 -41h8q45 0 91 111q24 73 24 151q0 119 -57 242q-94 201 -312 299
q-106 45 -225 45q-123 0 -262 -49zM303 1409q-139 -238 -139 -446q0 -82 20 -160q74 -279 246 -451q279 -270 574 -282q45 -4 86 -4q237 0 430 77q12 4 24 9l25 12q16 4 33 20q16 17 16 37q0 8 -4 17q-17 24 -53 24l-41 -16q-45 -21 -95 -37q-135 -45 -274 -45
q-107 0 -217 29q-250 61 -430 229t-221 418q-9 53 -9 110q0 193 111 393q45 62 53 82q4 9 4 17q0 16 -20 33q-12 8 -29 8q-16 0 -33 -13q-36 -16 -57 -61zM1135 1327q-168 0 -287 -106q-119 -111 -119 -263q0 -151 123 -262q123 -110 291 -110q172 0 282 106
q111 107 111 266q0 152 -115 263q-118 106 -286 106zM1143 1966q450 0 762 -287q303 -278 303 -671v-25q-8 -283 -140 -516q-135 -234 -380 -377q-238 -139 -537 -139h-16q-312 0 -557 135q-250 135 -390 369q-139 229 -139 503q0 414 324 713q323 295 770 295zM504 1610
q-58 0 -58 -58q0 -57 58 -57q57 0 57 57q0 29 -12 45q-17 13 -45 13z" />
    <glyph glyph-name="p" unicode="p" horiz-adv-x="1737" 
d="M135 1585q0 103 66 217q65 111 295 111h471q331 0 540 -221q197 -209 197 -467v-33q-25 -311 -246 -483q-225 -172 -491 -172h-152v-201q0 -152 -98 -246q-103 -98 -238 -98h-24q-320 0 -320 377v1216zM262 1569v-1192q0 -279 193 -291q73 0 82 49v8q0 41 -50 50
q-118 16 -118 151v1225q0 49 -54 49q-53 0 -53 -49zM823 1520q-49 0 -49 -37v-8q4 -50 49 -50h41q115 0 201 -41q49 -32 70 -73q16 -41 20 -82t4 -62q4 -37 49 -37h9q49 5 49 54q0 147 -95 250q-86 90 -282 90q-33 0 -66 -4zM823 737q-49 0 -49 -41v-8q4 -49 57 -49h33
q299 0 479 135q25 21 25 45q0 17 -16 33q-21 20 -41 20q-17 0 -37 -16q-115 -86 -201 -102.5t-250 -16.5zM815 1327v-209h49q168 0 168 99q0 110 -143 110h-74zM369 1769q-58 0 -58 -57t58 -57q57 0 57 57q0 29 -12 45q-17 12 -45 12z" />
    <glyph glyph-name="bracketleft" unicode="[" 
 />
    <glyph glyph-name="bracketright" unicode="]" 
 />
    <glyph glyph-name="backslash" unicode="\" horiz-adv-x="2568" 
d="M983 2802l1409 -2409q70 -114 70 -229q0 -58 -17 -115q-57 -176 -213 -266q-106 -66 -221 -66q-57 0 -115 17q-184 45 -319 266l-1409 2384q-57 102 -57 209q0 61 20 127q53 172 213 266q107 61 225 61q62 0 123 -16q185 -49 291 -229zM840 2712q-74 131 -152 131
q-12 0 -24 -4q-46 -13 -54 -50v-16q0 -29 21 -45q61 -41 90 -82l1376 -2359q49 -78 49 -123q0 -12 -4 -21q-16 -45 -74 -86q-40 -32 -40 -65q0 -12 4 -25q20 -45 69 -45h17q61 8 118 66q54 53 62 151v17q0 94 -66 196zM471 2839q-78 0 -78 -78q0 -90 78 -90q37 0 66 28
q24 25 24 62q0 78 -90 78z" />
    <glyph glyph-name="a" unicode="a" horiz-adv-x="1913" 
d="M639 1737q70 135 197 180q57 20 118 20q66 0 131 -24q123 -53 189 -176l647 -1274q45 -86 45 -164q0 -98 -70 -180q-106 -131 -270 -131q-24 0 -53 4q-201 20 -299 266h-627q-94 -238 -295 -262q-33 -4 -61 -4q-160 0 -262 127q-70 82 -70 176q0 82 49 176zM958 942
l-102 -229h209zM1016 1090l184 -402q21 -49 53 -49q9 0 21 4q29 12 29 37q0 16 -9 33l-188 405q-16 37 -41 41q-29 0 -45 -20q-8 -13 -8 -25t4 -24zM655 463q-57 0 -65 -45v-8q0 -41 57 -41h619q77 0 159 -152q50 -90 123 -111q29 -8 49 -8q33 0 50 21q20 20 20 45
q0 8 -4 16q-16 29 -70 29v0q-45 0 -90 90q-49 90 -86 127t-151 37h-611zM696 1585l-585 -1167q-21 -49 -21 -99q-4 -49 21 -94q41 -94 139 -114q16 -5 29 -5q40 0 57 37q4 13 4 21q0 29 -45 37q-107 28 -107 106q0 41 29 94l574 1151q8 25 8 45q0 17 -4 29q-9 21 -29 21
q-8 0 -16 -5q-33 -12 -54 -57zM831 1769q-57 0 -57 -57t57 -57q58 0 58 57q0 29 -12 45q-17 12 -46 12z" />
    <glyph glyph-name="s" unicode="s" horiz-adv-x="1688" 
d="M815 1962h49q160 0 303 -41q164 -53 267 -156q94 -102 94 -237v-8q0 -95 -86 -181q-66 -61 -172 -61q-41 0 -86 8q-82 21 -234 131q-57 45 -102 45q-12 0 -25 -4q-53 -16 -61 -65v-13q0 -41 45 -69q4 -4 180 -66q176 -61 291 -115q111 -53 176 -131q160 -180 160 -413
v-25q-12 -254 -217 -434q-205 -176 -541 -176h-16q-287 4 -459 86q-172 78 -246 209q-57 98 -57 192q0 29 4 58q20 114 119 176q82 57 159 57h9q82 -4 143 -33q57 -28 147 -90q86 -65 123 -78q33 -12 58 -12q32 0 57 20.5t25 49.5q0 16 -9 37q-24 53 -98 82
q-373 118 -520.5 228.5t-175.5 352.5q-4 29 -4 57q0 226 168 402q184 201 532 217zM791 1655q-50 -21 -58 -49q-4 -9 -4 -17q0 -16 16 -28q13 -13 29 -13q8 0 17 4q32 13 61 13q41 0 78 -21l147 -82q103 -61 123 -69q29 -13 62 -13q24 0 53 9q61 12 86 65q8 25 8 45
q0 29 -20 49q-13 13 -25 13q-29 0 -61 -41q-17 -29 -54 -29q-49 0 -131 53q-164 119 -270 119q-33 0 -57 -8zM209 512q-16 -45 -16 -86q0 -102 98 -193q131 -122 381 -167q90 -17 176 -17q106 0 201 25q172 41 278 143q29 29 29 49q0 21 -21 37q-12 12 -28 12q-37 0 -82 -45
q-119 -106 -340 -114h-41q-201 0 -361 73q-172 78 -172 201v8l17 41q16 37 24 53v9q0 8 -8 20q-16 29 -45 29q-12 0 -25 -4q-45 -17 -65 -74zM279 1536q-41 -74 -41 -176q0 -53 12 -115q29 -184 188 -278q127 -74 307 -131q177 -58 234 -95q53 -36 53 -135q0 -45 33 -57
q12 -4 20 -4q21 0 37 20q17 21 17 58q0 16 -4 41q-13 98 -82 151q-70 49 -238 115q-74 24 -172 61q-102 33 -184 98.5t-107 167.5q-8 29 -8 62q0 82 49 192q4 13 4 21q0 24 -20 45q-17 12 -33 12q-37 0 -65 -53zM438 1720q-53 0 -53 -57q0 -53 53 -53q58 0 58 53
q0 29 -13 45q-16 12 -45 12z" />
    <glyph glyph-name="d" unicode="d" horiz-adv-x="2081" 
d="M446 1913h512q504 0 783 -287q274 -283 274 -659v-9q-4 -385 -286.5 -671.5t-790.5 -286.5h-459q-139 0 -241.5 73.5t-102.5 213.5v1331q0 131 86 213t225 82zM815 1319v-725q234 0 381 70q147 65 147 294q0 205 -159 299q-123 70 -271 70q-49 0 -98 -8zM705 209
q-82 0 -82 -49t82 -49h278q242 0 352 65q45 25 45 57q0 9 -4 17q-12 20 -41 20q-16 0 -41 -8q-143 -53 -295 -53h-294zM262 1569v-1241q0 -131 66 -131q12 0 24 4q21 12 21 45q0 16 -4 41q-9 16 -9 73v1209q0 61 -49 61t-49 -61zM840 1536q-82 -4 -86 -53v-8q0 -41 61 -41
h62q270 0 405 -103q148 -119 172 -270q8 -62 8 -111q0 -73 -20 -127q-17 -37 -17 -61q0 -29 29 -41h16q54 0 74 86q21 65 21 147q0 41 -4 86q-17 131 -91 246q-73 115 -229 189q-135 61 -336 61h-65zM352 1778q-57 0 -57 -58q0 -65 57 -65q25 0 45 20q21 21 21 45
q0 58 -66 58z" />
    <glyph glyph-name="f" unicode="f" horiz-adv-x="1552" 
d="M471 1913h639q410 0 410 -262v-21q-4 -143 -90 -221q-91 -82 -230 -82h-385v-135h234q294 0 311 -225q0 -95 -70 -160q-73 -70 -200 -70h-275v-368q0 -377 -344 -377q-336 0 -336 401v1209q0 139 90 225t246 86zM823 1520q-53 0 -53 -41q0 -54 61 -54h345q24 0 94 21
q69 16 82 65v17q4 28 -17 41q-12 4 -24 4q-17 4 -29 -4l-45 -29q-29 -20 -70 -20h-344zM262 1561v-1201q0 -249 184 -266h17q53 0 65 45v8q0 41 -73 54q-95 20 -95 168v1192q0 69 -41 69h-8q-49 -4 -49 -69zM840 942q-70 0 -70 -41v-8q4 -53 61 -53h250q74 0 111 24
q29 17 29 49q0 29 -29 37q-12 8 -29 8q-8 0 -20 -4q-33 -12 -37 -12h-266zM360 1769q-57 0 -57 -57t57 -57q58 0 58 57q0 29 -12 45q-17 12 -46 12z" />
    <glyph glyph-name="g" unicode="g" horiz-adv-x="2040" 
d="M1126 1962q279 0 488 -98.5t274 -233.5q33 -65 33 -135q0 -29 -4 -57q-25 -103 -98 -164q-74 -66 -172 -78q-21 -4 -41 -4q-82 0 -172 41q-156 78 -267 98q-20 4 -41 4q-94 0 -204 -61q-152 -86 -181 -246q-8 -41 -8 -82q0 -106 66 -192q123 -148 282 -164q33 -4 66 -4
q123 0 229 61h-127q-127 0 -196 70q-74 65 -74 164q0 94 74 163q69 66 196 66h381q144 0 250 -74q102 -73 102 -172v-401q0 -225 -278 -373q-266 -139 -537 -139h-32q-295 4 -541 139q-250 135 -397 365q-148 225 -148 495q0 279 148 512q147 230 393 365t536 135zM889 1479
q-82 -33 -82 -70q0 -12 8 -25q12 -24 37 -24q16 0 37 8q123 62 246 62q106 0 217 -46q82 -41 127 -61q45 -25 94 -25h16q41 0 90 21q45 24 58 57q4 8 4 17q0 24 -21 41q-20 16 -28 16h-9q-16 -4 -32 -16q-21 -17 -33 -25q-21 -4 -37 -4h-16q-25 0 -49 16q-25 17 -82 41
q-144 70 -287 70q-127 0 -258 -53zM319 1401q-131 -234 -131 -459q0 -147 58 -291q139 -364 520 -516q184 -78 377 -78q200 0 409 86q78 33 78 74q0 12 -8 25q-8 24 -37 24q-24 0 -57 -16q-185 -90 -381 -90q-70 0 -143 12q-275 45 -472 234q-196 184 -237 438q-8 49 -8 102
q0 205 131 414q12 37 12 61q4 25 -12 33q-12 8 -25 8q-41 0 -74 -61zM1098 897q-4 -12 -4 -25q0 -45 32 -73q37 -37 91 -37h151q111 0 135 -107q8 -45 49 -45q37 0 50 41q4 8 4 21q0 37 -37 102q-53 82 -185 82h-135q-41 0 -41 16q0 13 17 33q12 13 12 25q0 4 -4 12
q-8 21 -41 33q-12 4 -25 4q-57 0 -69 -82zM496 1593q-58 0 -58 -57t58 -57q57 0 57 57q0 29 -12 45q-17 12 -45 12z" />
    <glyph glyph-name="h" unicode="h" horiz-adv-x="2032" 
d="M258 1577q0 29 29 45q12 4 24 4q13 4 25 -4q24 -16 24 -53v-1217q0 -151 103 -151q49 -8 61 -33v-12q4 -21 -16 -41q-25 -21 -62 -21h-8q-180 17 -180 258v1225zM807 1602v-336h418v286q0 238 172 332q82 45 168 45t172 -49q168 -94 168 -311v-1184q0 -217 -103 -311
q-98 -90 -233 -90h-25q-160 8 -237 98q-82 90 -82 295v287h-418v-295q0 -377 -328 -377h-24q-131 0 -226 86q-102 90 -102 291v1200q0 229 168 319q86 45 176 45q82 0 164 -41q172 -86 172 -290zM1335 1577v-311q0 -41 29 -49q12 -5 25 -5q12 0 28 9q25 16 25 45v319
q0 49 -53 49q-54 0 -54 -57zM807 881q-33 0 -45 -25q-4 -12 -4 -25q0 -16 8 -28q12 -29 41 -29h410q86 0 110 -45q16 -37 16 -65v-9v-327q0 -217 177 -234h12q37 0 57 21q17 16 21 37q0 8 -4 16q-13 25 -45 25q-119 24 -119 143v328q0 217 -217 217h-418zM360 1778
q29 0 46 -13q12 -16 12 -45q0 -57 -58 -57q-57 0 -57 57q0 58 57 58zM1442 1778q-58 0 -58 -66q0 -57 58 -57q53 0 53 57q0 66 -53 66z" />
    <glyph glyph-name="j" unicode="j" horiz-adv-x="1769" 
d="M705 688q0 -61 65 -94q33 -16 61 -16q33 -5 62 16q57 33 57 143v799q0 385 336 385q344 0 344 -401v-799q0 -361 -250 -569q-237 -197 -549 -197h-36q-336 8 -566 238q-209 204 -209 552q0 41 5 86q16 238 184 316q74 33 147 33q90 0 185 -50q164 -90 164 -282v-160z
M135 831q-4 -45 -4 -86q0 -270 164 -446q184 -205 455 -238q53 -8 102 -8q201 0 340 107q33 20 33 49q0 12 -8 24q-17 25 -41 25q-29 0 -70 -33q-102 -69 -258 -69q-45 0 -90 4q-221 20 -377 188q-139 152 -139 418v57v8q0 25 -21 41q-20 17 -37 17q-8 0 -16 -4
q-29 -13 -33 -54zM1073 1561v-840q0 -74 -33 -115q-16 -20 -16 -37q0 -12 8 -24q21 -29 41 -33q103 0 103 233v799q0 74 -58 74h-8q-37 0 -37 -57zM1167 1769q-57 0 -57 -57t57 -57q66 0 66 57t-66 57zM258 1032q-65 0 -65 -57q0 -53 65 -53q21 0 37 16t16 37q0 29 -16 45
q-16 12 -37 12z" />
    <glyph glyph-name="k" unicode="k" horiz-adv-x="1913" 
d="M127 1577q0 221 172 307q86 41 172 41q86 4 172 -41q172 -90 172 -299v-319l369 512q110 151 274 151q21 0 41 -4q189 -20 279 -176q41 -70 41 -135q0 -86 -66 -172l-336 -475l406 -480q82 -94 82 -188q0 -20 -4 -45q-25 -119 -132 -197q-98 -73 -213 -73h-24
q-135 4 -238 118l-479 570v-336q0 -217 -172 -307q-86 -45 -172 -45t-172 45q-172 90 -172 307v1241zM258 1561v-1209q0 -254 188 -266q70 0 78 53v8q0 41 -69 54q-95 8 -95 151v1217q0 57 -41 57h-8q-53 -4 -53 -65zM352 1769q-57 0 -57 -57t57 -57q66 0 66 57t-66 57z
M1384 1778q-24 0 -45 -21q-20 -20 -20 -45q0 -57 65 -57q58 0 58 57q0 66 -58 66zM1217 1630l-386 -532q-20 -33 -20 -54q0 -24 20 -40q13 -9 25 -9q29 0 57 37l390 545q16 20 16 37q0 20 -21 37q-16 12 -32 12q-25 0 -49 -33zM922 737l479 -585q53 -62 127 -62q20 0 41 4
q57 4 57 45v8q-4 50 -57 54q-74 0 -107 41l-463 549q-24 28 -49 28q-24 -4 -37 -28q-4 -9 -4 -21q0 -16 13 -33z" />
    <glyph glyph-name="l" unicode="l" horiz-adv-x="1479" 
d="M119 1585q0 139 94 238q90 98 225 106q361 0 361 -418v-917h336q200 0 290 -90q78 -86 78 -201v-24q-8 -115 -98 -197t-238 -82h-704q-180 0 -262 102q-82 103 -82 344v1139zM664 209q-62 0 -62 -49t62 -49h487q131 0 168 49q16 20 16 41q0 16 -8 32q-16 25 -37 25
q-12 0 -24 -8q-62 -41 -99 -41h-503zM242 1561v-1242q0 -86 28 -110q21 -21 37 -21q17 0 29 21q20 16 20 45v16q-12 37 -12 41v1250q0 61 -57 61q-45 0 -45 -61zM336 1769q-57 0 -57 -57q0 -49 57 -49t57 49q0 29 -12 45q-16 12 -45 12z" />
    <glyph glyph-name="semicolon" unicode=";" horiz-adv-x="1024" 
d="M270 8q-155 111 -180 275q-8 41 -8 77q0 119 65 226q86 139 222 184q73 21 143 21q82 0 164 -29q143 -57 221 -189q53 -98 53 -196q0 -41 -8 -82q-12 -131 -254 -553q-57 -102 -160 -135q-41 -13 -86 -13q-65 0 -131 29q-106 66 -106 176q0 90 65 209zM385 352
q-4 13 -4 25q0 41 32.5 90t32.5 78v8q-8 33 -53 49q-8 4 -16 4q-41 0 -74 -45q-74 -115 -74 -192v-25q13 -86 78 -143q66 -62 119 -107q16 -20 16 -49q0 -45 -36 -115q-37 -65 -37 -106q0 -37 24 -57q17 -13 33 -13q33 0 70 37q57 57 86 164q16 65 16 111q0 24 -4 45
q-25 77 -111 130.5t-98 110.5zM319 1798q-81 -94 -81 -192q0 -82 57 -164q90 -107 197 -111h24q82 0 131 29q45 24 49 61q0 37 -28 58q-17 8 -37 8q-21 0 -45 -8q-33 -13 -62 -13q-65 0 -110 66q-29 45 -29 86q0 49 41 94q25 29 25 53q4 29 -25 50q-25 12 -49 12
q-33 0 -58 -29zM512 2032q180 0 307 -123q123 -127 123 -307q0 -177 -123 -299q-127 -127 -307 -127q-172 0 -299 127t-127 299q0 176 127 303t299 127z" />
    <glyph glyph-name="quotesingle" unicode="'" horiz-adv-x="1024" 
d="M377 2359q-4 13 -4 25q0 49 32.5 98t32.5 78v8q-8 33 -53 49h-16q-33 4 -66 -49q-82 -106 -82 -184q0 -12 4 -25q13 -90 78 -147l115 -98q20 -25 20 -58q0 -24 -12 -53q-33 -70 -53 -127q-8 -25 -8 -45q0 -29 20 -45q16 -17 37 -17q33 0 65 37q58 58 86 164q17 66 17 111
q0 28 -4 49q-25 82 -111 131t-98 98zM262 2023q-156 111 -180 275q-8 41 -8 78q0 118 65 225q86 139 221 184q74 25 152 25q45 0 90 -8q119 -29 201 -99q78 -73 119 -176q24 -65 24 -131q0 -41 -8 -86q-8 -74 -94 -242l-156 -307q-65 -110 -168 -143q-41 -16 -82 -16
q-65 0 -135 36q-102 66 -102 181q0 90 61 204z" />
    <glyph glyph-name="z" unicode="z" horiz-adv-x="1839" 
d="M401 1913h934q201 0 303 -74q99 -78 103 -192v-17q0 -102 -62 -188l-639 -848h369q217 0 299 -98q78 -103 78 -201q-17 -303 -393 -303h-1000q-131 0 -225 69q-98 70 -115 185q-4 20 -4 41q0 90 78 192l627 848h-385q-193 0 -279 148q-45 73 -45 147t41 147
q86 144 315 144zM401 1536q-102 0 -139 49q-16 25 -49 25q-33 -4 -41 -33v-16q0 -21 21 -50q65 -69 253 -69h324q78 0 78 45q0 49 -78 49h-369zM647 209q-69 0 -69 -49q12 -49 77 -49h779q184 0 184 82q0 28 -21 40q-16 9 -32 9h-13q-8 -4 -41 -17q-32 -16 -57 -16h-807z
M848 1241l-647 -848q-49 -53 -49 -106q0 -41 24 -78q21 -33 49 -33h17q37 8 37 49q0 13 -5 33q-8 16 -8 33q0 12 13 37l663 880q33 41 33 111t-45 98q-17 8 -33 8q-16 5 -33 -8q-24 -16 -24 -33q0 -12 8 -24q16 -29 16 -57q4 -29 -16 -62zM258 1769q-57 0 -57 -65
q0 -57 57 -57q61 0 61 57q0 65 -61 65z" />
    <glyph glyph-name="x" unicode="x" horiz-adv-x="1806" 
d="M479 983l-319 393q-107 127 -107 238q0 123 123 225q98 86 234 86h24q148 -12 271 -164l200 -250l238 275q102 123 241 135h37q119 0 209 -66q107 -77 123 -204q4 -17 4 -33q0 -111 -94 -225l-328 -410l377 -463q82 -110 82 -217q0 -61 -25 -119q-77 -164 -266 -192
q-28 -4 -57 -4q-152 0 -262 131l-279 336l-291 -353q-98 -114 -241 -114q-33 0 -70 4q-192 28 -266 192q-25 54 -25 111q0 111 99 233zM991 537l291 -361q61 -90 180 -90q54 8 58 49v8q0 33 -41 41q-13 4 -49.5 8.5t-61.5 32.5l-287 361q-28 45 -61 45q-12 0 -25 -8
q-24 -13 -24 -37q0 -21 20 -49zM1135 1602l-136 -168q-32 -33 -32 -54q0 -20 24 -37q17 -12 33 -12q20 0 41 29l143 168q37 37 37 65q0 17 -12 29q-16 16 -37 16q-29 0 -61 -36zM233 1495l345 -430q32 -41 32 -78v-8q-8 -41 -24 -57l-377 -451q-70 -86 -70 -160v-24
q8 -86 74 -140q57 -45 98 -45h8q58 0 66 45v9q0 32 -57 45q-62 20 -78 78q-4 16 -4 32q0 41 24 74l385 471q50 70 50 135q0 70 -58 135l-328 418l-32 58q-13 20 -37 20h-8q-41 0 -49 -37v-8q0 -37 40 -82zM295 1778q-62 0 -62 -58q0 -65 62 -65q57 0 57 65q0 29 -12 45
q-16 13 -45 13zM1294 1761q-53 0 -53 -57q0 -66 53 -66q58 0 58 66q0 29 -13 45q-16 12 -45 12z" />
    <glyph glyph-name="c" unicode="c" horiz-adv-x="2114" 
d="M1098 1966h49q266 0 524 -131q275 -143 369 -340q41 -78 41 -147q0 -41 -13 -82q-36 -115 -135 -181q-82 -53 -180 -53h-41q-123 8 -217 111q-172 192 -356 192q-107 0 -217 -61q-148 -86 -181 -246q-8 -45 -8 -86q0 -102 58 -180q143 -180 323 -180h33q196 16 323 163
q95 115 226 127h41q102 0 188 -53q103 -69 139 -184q13 -41 13 -82q0 -78 -45 -152q-123 -213 -369 -331.5t-545 -118.5q-426 0 -745 295q-324 295 -324 696q0 410 311 709q308 295 738 315zM881 1479q-74 -25 -74 -62q0 -12 8 -24q12 -25 37 -25q16 0 37 8q123 62 250 62
q53 0 106 -13q180 -41 274.5 -143t163.5 -135q29 -12 66 -12q49 0 115 24q49 29 53 58q0 20 -21 40q-16 17 -28 21q-17 0 -29 -8l-41 -21q-20 -12 -45 -12q-57 0 -135 82q-94 119 -283 184q-78 29 -172 29q-127 0 -282 -53zM319 1417q-135 -254 -135 -487q0 -74 13 -144
q53 -294 278 -487q221 -193 529 -238q86 -12 167 -12q209 0 390 86q73 45 73 82q0 8 -4 16q-8 25 -33 25q-20 0 -53 -16q-172 -90 -368 -90q-70 0 -140 12q-282 37 -487 213q-205 172 -254 442q-12 62 -12 127q0 209 135 438q16 29 16 50q0 12 -8 20q-20 16 -41 16
q-33 0 -66 -53zM496 1602q-58 0 -58 -58q0 -57 58 -57q57 0 57 57q0 29 -12 45q-17 13 -45 13z" />
    <glyph glyph-name="v" unicode="v" horiz-adv-x="1937" 
d="M8 1450q-41 86 -41 164q0 57 25 110q49 123 180 177q70 28 139 28q62 0 127 -24q135 -50 209 -217l311 -713l328 704q103 230 303 250q25 4 45 4q164 0 271 -135q61 -82 61 -176q0 -82 -45 -172l-647 -1290q-53 -103 -176 -148q-70 -24 -140 -24q-57 0 -114 16
q-131 37 -189 148zM1368 1610l-328 -729q-12 -25 -12 -41q0 -29 33 -37q8 -4 16 -4q37 0 58 41l327 721q13 24 13 41q0 32 -33 45q-12 4 -25 4q-33 0 -49 -41zM94 1528l643 -1278q49 -111 185 -156h8q74 0 82 49v9q0 41 -54 49q-20 0 -45 4q-24 4 -49 28q-24 21 -49 70
l-622 1266q-33 61 -66 61q-8 0 -16 -4q-29 -16 -29 -49q0 -21 12 -49zM184 1778q58 0 58 -66q0 -57 -58 -57q-65 0 -65 57q0 25 20 45q21 21 45 21zM1503 1778q-53 0 -53 -58q0 -57 53 -57q58 0 58 57q0 29 -13 45q-16 13 -45 13z" />
    <glyph glyph-name="b" unicode="b" horiz-adv-x="1806" 
d="M578 1913h389q262 0 438 -148q176 -147 209 -360q8 -45 8 -86q0 -164 -102 -303q176 -127 221 -299q16 -70 16 -139q0 -103 -37 -197q-65 -164 -213 -270q-151 -111 -340 -111h-712q-320 0 -320 344v1258q0 311 443 311zM250 1569v-1266q0 -90 37 -106q16 -9 32 -9
q17 0 33 13q21 12 21 49q0 16 -4 37q-17 65 -17 114v1176q0 45 -49 45q-53 0 -53 -53zM664 201q-58 0 -58 -49q0 -50 49 -50h488q139 0 200 50q33 20 33 49v12q-8 37 -41 37q-12 0 -65 -25q-53 -24 -135 -24h-471zM807 745v-159h151q115 0 115 78q0 81 -143 81h-123z
M815 942q-41 0 -57 -20q-8 -13 -8 -25t8 -25q16 -24 57 -24h143q234 0 234 -197v-20v-8q0 -41 49 -45h8q41 0 45 45q4 28 4 57q5 90 -53 164q-78 98 -295 98h-135zM807 1319v-143h82q53 0 86 12q33 8 33 61q0 70 -119 70h-82zM815 1528q-49 -4 -49 -53q0 -50 49 -50
q33 5 62 5q258 0 258 -230v-8q0 -33 45 -33t61 49q4 21 4 41q0 86 -74 185q-81 98 -278 98q-37 0 -78 -4zM352 1769q-57 0 -57 -57t57 -57q58 0 58 57q0 29 -13 45q-16 12 -45 12z" />
    <glyph glyph-name="n" unicode="n" horiz-adv-x="2089" 
d="M258 1561v-1209q0 -233 172 -250h16q37 0 62 21q16 12 16 33q0 8 -4 20q-16 29 -65 33q-95 12 -95 143v1217q0 53 -57 53q-45 0 -45 -61zM1274 1184v385q0 225 168 315q82 41 168 41q86 4 172 -41q172 -90 172 -307v-1200q0 -221 -115 -316q-94 -81 -209 -81q-24 0 -49 4
q-143 20 -221 110l-545 660v-410q0 -225 -172 -311q-86 -45 -172 -45t-172 45q-172 86 -172 303v1241q0 176 111 266q102 82 229 82h25q143 -12 221 -94zM1384 1577v-528q0 -62 46 -62h8q49 4 49 78v504q0 61 -49 61q-54 0 -54 -53zM848 897l622 -737q58 -58 140 -58
q49 9 53 58v8q0 37 -45 41q-49 0 -131 78l-557 671q-25 29 -49 29q-17 0 -33 -12q-21 -17 -21 -33q0 -20 21 -45zM352 1778q29 0 45 -17q13 -16 13 -41q0 -65 -58 -65q-57 0 -57 65q0 58 57 58zM1479 1778q-54 0 -54 -58q0 -57 54 -57q57 0 57 57q0 29 -12 45q-17 13 -45 13
z" />
    <glyph glyph-name="m" unicode="m" horiz-adv-x="2544" 
d="M287 1638q28 136 114 209q82 70 197 78h25q102 0 192 -49q98 -57 143 -164l308 -631l327 648q74 143 217 184q50 16 99 16q86 0 168 -49q127 -74 155 -225l246 -1295q8 -41 8 -77q0 -140 -114 -222q-103 -77 -218 -77q-53 0 -110 16q-180 49 -221 233l-78 353l-152 -377
q-53 -139 -188 -197q-74 -32 -148 -32q-61 0 -122 24q-136 49 -197 205l-147 377l-70 -336q-41 -189 -225 -242q-62 -20 -119 -20q-115 0 -213 78q-115 90 -115 249q0 45 8 95zM410 1593l-242 -1241q-4 -24 -4 -49q-4 -74 53 -131q66 -70 160 -70h16q53 9 58 54v8
q0 37 -66 37q-119 12 -119 94q0 16 4 33l242 1241v8q0 33 -16 49q-13 12 -33 12q-8 0 -17 -4q-32 -8 -36 -41zM840 782l200 -520q58 -160 201 -160h16q58 0 58 50q0 45 -58 49q-90 0 -131 118l-184 496q-12 37 -53 37q-12 0 -25 -4q-28 -12 -28 -41q0 -12 4 -25zM1630 1593
l-287 -610q-8 -16 -8 -29q0 -16 8 -32q13 -25 37 -25h9q32 0 53 45l287 594q12 20 12 37q0 16 -8 29q-17 24 -50 24q-36 0 -53 -33zM1831 770l90 -500q41 -176 201 -176q57 0 61 49v9q0 36 -53 49q-98 12 -115 86l-86 487q-8 33 -33 45q-8 4 -16 4q-16 0 -29 -8
q-20 -12 -20 -37v-8zM512 1786q66 0 66 -57q0 -58 -66 -58q-57 0 -57 58q0 57 57 57zM1761 1769q-57 0 -57 -57q0 -65 57 -65q62 0 62 65q0 57 -62 57z" />
    <glyph glyph-name="comma" unicode="," horiz-adv-x="1024" 
d="M385 352q-4 13 -4 25q0 41 32.5 90t32.5 78v8q-8 33 -53 49q-8 4 -16 4q-41 0 -74 -45q-74 -115 -74 -192v-25q13 -86 78 -143q66 -62 119 -107q16 -20 16 -49q0 -45 -36 -115q-37 -65 -37 -106q0 -37 24 -57q17 -13 33 -13q33 0 70 37q57 57 86 164q16 65 16 111
q0 24 -4 45q-25 77 -111 130.5t-98 110.5zM270 8q-155 111 -180 275q-8 41 -8 77q0 119 65 226q86 139 222 184q73 21 143 21q82 0 164 -29q143 -57 221 -189q53 -98 53 -196q0 -41 -8 -82q-12 -131 -254 -553q-57 -102 -160 -135q-41 -13 -86 -13q-65 0 -131 29
q-106 66 -106 176q0 90 65 209z" />
    <glyph glyph-name="period" unicode="." horiz-adv-x="1024" 
d="M512 807q176 0 303 -127t127 -303q0 -172 -127 -299t-303 -127t-303 127t-127 299q0 176 127 303t303 127zM311 569q-65 -86 -65 -172v-24q8 -103 49 -156q82 -102 188 -111q29 -4 54 -4q69 0 110 25q45 29 45 66q0 16 -12 32q-21 33 -57 33q-21 0 -45 -8
q-29 -12 -58 -12q-37 0 -69 20q-58 37 -66 107v16q0 61 41 106q25 25 25 50q0 32 -33 57q-17 8 -33 8q-37 0 -74 -33z" />
    <glyph glyph-name="slash" unicode="/" horiz-adv-x="2568" 
d="M1593 2802q119 196 316 233q49 8 98 8q135 0 242 -73q159 -107 200 -279q13 -53 13 -102q0 -111 -62 -213l-1417 -2392q-156 -263 -393 -263h-17q-254 9 -393 222q-69 106 -69 217q0 114 73 233zM1729 2703l-1385 -2351q-61 -98 -61 -184q0 -37 12 -74q33 -123 127 -160
q33 -16 57 -16q45 0 66 49q4 13 4 25q0 33 -37 69q-57 50 -74 86q-4 9 -4 25q0 37 37 107l1384 2367q21 41 50 57q28 13 41 25q20 12 20 37q0 12 -4 24q-12 37 -49 41q-12 4 -25 4q-78 0 -159 -131zM2105 2839q-90 0 -90 -78q0 -82 90 -82q78 0 78 82q0 78 -78 78z" />
    <glyph glyph-name="space" unicode=" " horiz-adv-x="1143" 
 />
    <glyph glyph-name="asciitilde" unicode="~" 
 />
    <glyph glyph-name="exclam" unicode="!" horiz-adv-x="1233" 
d="M1065 2318v-868q0 -242 -131 -373q-131 -135 -320 -139h-8q-188 0 -315 123q-131 123 -131 348v889q0 237 135 372.5t319 135.5q185 0 320 -127q131 -127 131 -361zM319 2249v-807q0 -344 259 -344q98 0 102 65v8q0 58 -66 70q-82 8 -114 49q-37 37 -37 160v799
q0 110 -70 110q-74 0 -74 -110zM614 774q185 0 312 -123q123 -127 123 -299t-127 -299t-308 -127q-172 0 -295 131q-126 127 -126 295t122 295q123 127 299 127zM401 528q-57 -65 -57 -163v-33q12 -119 82 -180q90 -70 184 -74h17q82 0 143 49q25 16 25 41q0 20 -13 45
q-20 29 -53 29q-24 0 -57 -17q-29 -16 -58 -16q-53 0 -102 57q-41 45 -41 94q0 41 33 86q24 37 24 70v16q-8 41 -49 46h-8q-37 0 -70 -50zM463 2585q-37 0 -62 -29q-24 -29 -24 -62q0 -32 29 -61q24 -33 57 -33q37 0 65 29q25 25 25 65q0 41 -25 66q-24 25 -65 25z" />
    <glyph glyph-name="at" unicode="@" horiz-adv-x="2736" 
d="M840 1847q-49 0 -49 -49q0 -45 49 -45q41 0 41 45q0 49 -41 49zM176 1962q-160 -299 -160 -594q0 -115 25 -225q86 -406 311 -680q242 -279 549 -389q262 -99 500 -99q37 0 69 5q267 16 410 94q25 12 37 37q4 4 4 8q0 16 -16 24h-9q-24 0 -118 -24q-189 -58 -369 -58
q-188 0 -369 62q-360 119 -594 373q-155 168 -245 409q-86 217 -86 455v41q4 258 135 512q8 20 8 37q0 24 -20 37q-13 8 -25 8q-25 0 -37 -33zM336 2167q-66 0 -66 -53q0 -25 21 -46q20 -20 45 -20q24 0 45 20q20 21 20 46q0 53 -65 53zM1393 2601q-90 0 -90 -57
q0 -33 90 -33q368 0 635 -172q262 -176 397 -443q115 -229 115 -438q0 -33 -5 -65q-4 -13 -4 -25q0 -49 45 -49q41 0 41 74q4 49 4 98q0 168 -61 336q-82 213 -254 393t-405 283q-230 98 -484 98h-24zM1049 1729q-74 -17 -74 -58v-8q0 -16 16 -25q8 -4 21 -4q16 -4 37 4
q98 50 196 50q66 0 131 -25q160 -57 238 -201q45 -86 45 -176q0 -61 -21 -127q-20 -41 -20 -53q0 -33 29 -33q41 0 82 86q20 62 20 127q0 94 -45 193q-78 159 -254 241q-94 45 -201 45q-94 0 -200 -36zM647 1671q-110 -188 -110 -360q0 -70 16 -135q61 -238 201 -377
q217 -209 458 -209h25q250 8 385 106q4 4 28.5 20.5t37.5 28.5q12 13 12 29q0 8 -4 17q-13 24 -41 24q-17 0 -111 -61q-135 -78 -278 -78q-45 0 -95 8q-200 33 -352 172q-151 135 -184 340q-8 49 -8 98q0 156 86 316q12 24 24 41q13 16 17 28q4 9 4 17q0 20 -17 33
q-12 8 -24 8t-29 -8q-24 -25 -41 -58zM1241 1593q-139 0 -237.5 -90t-98.5 -217q0 -123 102.5 -213t241.5 -90q140 0 230 86t90 217q0 123 -90 217q-95 90 -238 90zM2183 1032q0 -49 37 -53q8 0 16 4q54 8 119 86q62 74 94 188q25 78 25 168q0 70 -16 148q-33 172 -82 258
q-123 278 -385 450q-267 168 -590 168q-299 0 -557 -147.5t-406 -400.5q-151 -259 -151 -558t155 -548q152 -254 414 -398q258 -147 561 -147q328 0 680 262q82 53 152 53h16q70 -8 119 -78q24 -36 24 -73q0 -82 -110 -172q-381 -328 -905 -328q-398 0 -729 197
q-332 192 -525 524q-196 328 -196 717q0 381 196 716q197 336 533 533q336 192 721 192q438 0 798 -241q361 -242 521 -631q77 -188 77 -455v-24q-4 -287 -155 -529q-152 -245 -475 -335q-37 -9 -74 -9q-66 0 -139 25q-119 37 -148 151q-98 -122 -348 -200
q-115 -37 -221 -37q-131 0 -246 53q-221 98 -369 287q-151 188 -151 471q0 221 106 401q103 176 291 271q180 90 410 90h16q377 0 512 -242q12 225 184 225h25q176 0 176 -200v-832zM1905 2007q-66 -53 -66 -143q0 -49 41 -54h8q33 0 33 37q0 62 45 115q12 8 12 20
q0 13 -8 25q-12 12 -28 12q-17 0 -37 -12z" />
    <glyph glyph-name="numbersign" unicode="#" 
 />
    <glyph glyph-name="dollar" unicode="$" horiz-adv-x="2159" 
d="M1417 258q-16 -12 -16 -41v-8q0 -33 24 -53q17 -17 37 -17q8 0 17 4q32 13 90 45q57 29 94 54q33 24 49 37q53 40 53 86v8q-8 49 -49 61q-8 4 -16 4q-37 0 -82 -45q-33 -37 -102 -74q-70 -36 -99 -61zM295 799q-74 -78 -74 -176q0 -41 12 -82q37 -152 160 -254
q135 -103 377 -193q25 -12 45 -86q21 -74 49 -139q25 -66 86 -102q70 -37 127 -37h17q61 8 82 53q4 12 4 24q0 25 -29 50q-12 12 -70 20q-57 8 -90 41q-16 16 -37 115q-20 94 -41 119q-41 53 -159.5 102t-196.5 94t-147 148q-25 24 -37 90q-4 16 -4 32q0 46 41 87
q28 28 28 57q0 8 -4 20q-16 41 -57 54q-8 4 -17 4q-32 0 -65 -41zM295 2114q-25 -99 -25 -193q0 -131 49 -250q78 -205 250 -319q99 -66 316 -144t315 -127q94 -49 111 -123q8 -28 20 -90q8 -61 25 -77q16 -21 53 -21q74 0 74 119q0 29 -4 69q-21 132 -136 209
q-118 74 -331 148t-291 127q-29 16 -98 65q-74 49 -127 123q-58 70 -74 197q-4 33 -4 65q0 103 45 230q16 37 16 65q0 45 -41 62q-16 8 -32 8q-74 0 -111 -143zM991 2343q-41 -21 -53 -66q-4 -12 -4 -24q0 -25 20 -41q13 -12 33 -12q25 0 62 16q24 12 53 12q37 0 74 -20
q61 -33 196 -123q135 -94 213 -119q25 -4 49 -4q41 0 74 12q53 17 82 49q29 33 41 82q4 17 4 33q0 25 -12 37q-21 29 -41 29q-17 0 -29 -13q-8 -4 -37 -32q-33 -33 -61 -37h-13q-32 0 -65 16q-41 16 -156 86q-114 70 -135 82q-86 49 -151 57h-33q-53 0 -111 -20zM938 2802
q-61 -4 -102 -66q-33 -49 -33 -82q0 -12 4 -20q4 -29 41 -45q16 -9 33 -9q16 0 32 13q21 12 33 32.5t29 45.5q29 28 29 61q0 12 -5 25q-16 45 -61 45zM647 2712q70 172 164 237q94 62 229 82h45q140 0 246 -65q123 -82 172 -222q254 -90 373 -225q115 -139 127 -278v-25
q0 -131 -66 -234q-86 -135 -196 -155q-45 -8 -86 -8q-66 0 -131 20q-111 37 -197 98l-151 103q-46 33 -86 33q-17 0 -33 -5q-62 -16 -74 -73q-4 -13 -4 -25q0 -45 37 -86q45 -57 143 -78q516 -114 746 -381q213 -258 213 -548v-33q-13 -316 -181 -553q-172 -238 -385 -275
q-28 -290 -233 -397q-107 -57 -213 -57q-98 0 -201 49q-213 102 -250 364q-409 119 -536 394q-62 131 -62 245q0 123 70 226q123 184 324 184h8q200 -8 446 -233q78 -70 152 -70q33 0 61 12q70 29 70 90q0 25 -8 54q-37 102 -250 163q-520 144 -680 410q-127 197 -135 451
v41q0 229 127 434q135 217 405 336zM545 2441q-82 0 -82 -82q0 -28 24 -53q25 -25 58 -25q78 0 78 78q0 82 -78 82z" />
    <glyph glyph-name="percent" unicode="%" horiz-adv-x="3465" 
d="M2122 2458l-1155 -1954q-49 -90 -54 -160q0 -16 5 -29q12 -86 69 -131q41 -37 78 -37q12 0 25 5q45 8 45 57v8q0 33 -37 57q-37 21 -45 58v8q0 41 45 115l1143 1962q8 12 20 32q8 17 29 25q28 25 28 57q0 29 -20 45q-21 13 -41 13q-62 0 -135 -131zM2032 2568
q73 131 221 168q49 12 98 12q90 0 176 -45q111 -53 152 -209q12 -53 12 -102q0 -98 -49 -176l-1225 -2073q-74 -118 -213 -151q-45 -8 -86 -8q-94 0 -180 49q-119 73 -152 225q-12 41 -12 82q0 106 66 213zM799 2544q-78 0 -90 -66v-16q0 -54 65 -54q119 0 197 -61
q78 -66 106 -160q13 -45 13 -86q0 -49 -17 -94q-12 -25 -12 -45t12 -33q12 -20 37 -20q12 0 25 4q41 12 65 61q25 49 25 115q0 53 -17 119q-32 139 -139 237q-111 99 -270 99zM270 2376q-77 -148 -77 -279q0 -49 12 -98q37 -172 131 -287q110 -115 242 -160q102 -36 196 -36
q25 0 49 4q111 12 176 41q70 28 70 81q0 13 -4 29q-16 41 -57 41q-29 0 -66 -16q-82 -37 -168 -37t-176 37q-176 69 -242 250q-24 61 -24 131q0 123 78 266q4 16 4 29q0 24 -13 41q-16 16 -45 20q-8 0 -16 -4q-41 -8 -70 -53zM770 2802q299 0 508 -205t209 -508
q0 -299 -209 -508q-213 -213 -508 -213q-188 0 -356 98q-168 99 -267 267q-98 168 -98 356q0 299 213 508q209 205 508 205zM2720 1106q-49 0 -74 -37q-16 -25 -16 -45q0 -12 4 -25q16 -32 61 -32q119 -4 197 -66q78 -61 106 -151q13 -37 13 -74q0 -53 -21 -107
q-8 -20 -8 -41q0 -20 12 -36q17 -21 41 -21q12 0 29 4q41 12 57 62q25 53 25 122q0 54 -17 115q-37 135 -143.5 233.5t-265.5 98.5zM2191 930q-73 -148 -73 -283q0 -49 8 -94q33 -176 131 -283q156 -168 344 -184q45 -4 90 -4q131 0 229 37q70 24 70 82q0 12 -4 28
q-12 50 -53 50q-29 0 -70 -21q-90 -41 -180 -41q-82 0 -164 37q-176 70 -238 250q-24 65 -24 139q0 123 70 262q8 13 8 25q0 16 -13 33q-20 24 -53 24h-8q-41 -8 -70 -57zM2687 1360q188 0 356 -98.5t266.5 -266.5t98.5 -356t-98 -356q-99 -172 -267 -267q-168 -98 -356 -98
t-356 98q-172 95 -267 267q-98 168 -98 356t98 356q95 168 267 267q168 98 356 98zM2392 1176q-82 0 -82 -78q0 -74 82 -74q74 0 74 74q0 78 -74 78zM2695 831q-78 0 -135 -53t-57 -139q0 -78 57 -131t135 -53t131 53t53 131q0 86 -53 139t-131 53zM463 2617
q-29 0 -49.5 -20.5t-20.5 -52.5q0 -78 70 -78q82 0 82 78q0 73 -82 73zM774 2281q-82 0 -135 -57t-53 -135q0 -90 57 -139q53 -54 131 -54q82 0 139 54q54 49 54 139q0 53 -25 98q-24 41 -65 70q-46 24 -103 24zM2441 2585q-74 0 -74 -66q0 -70 74 -70q62 0 62 70
q0 66 -62 66z" />
    <glyph glyph-name="asciicircum" unicode="^" 
 />
    <glyph glyph-name="ampersand" unicode="&#x26;" horiz-adv-x="2367" 
d="M344 1470q-164 197 -164 435v24q4 250 160 463q152 213 405 320q189 81 406 86q217 0 417.5 -86t344.5 -254q131 -160 160 -312q8 -49 8 -94q0 -94 -37 -176q-53 -123 -156 -188q-114 -78 -246 -78q-40 0 -81 8q-177 33 -279 197q-65 114 -131 114q-37 0 -70 -33
q-53 -45 -53 -98v-16q8 -70 123 -111q139 -45 176 -180q12 -49 12 -94q0 -90 -45 -172q-69 -127 -204 -144q-95 -12 -95 -98q0 -12 4 -29q13 -110 115 -127h16q95 0 197 156q156 242 283 332q73 53 180 53q70 0 156 -25q200 -57 295 -229q36 -74 36 -160q0 -118 -69 -258
q151 -164 151 -327v-17q-8 -176 -143 -295q-135 -123 -307 -131h-25q-155 0 -291 115q-233 -119 -467 -119q-114 0 -229 29q-352 86 -569 356q-222 266 -230 594v33q0 303 246 536zM410 1311q-123 -135 -144 -316q-4 -41 -4 -82q0 -143 57 -282q70 -180 193 -287
q160 -151 319 -213q119 -49 242 -49q41 0 82 4q168 16 406 115q12 4 24 4q37 0 86 -29q66 -41 131 -74q45 -24 103 -24q24 0 49 4q65 12 94 53q16 21 16 41q0 17 -8 33q-12 20 -33 33q-16 8 -32 8h-17q-28 -8 -53 -17h-12q-41 0 -115 46q-90 53 -152 73q-16 4 -32 4
q-58 0 -131 -37q-197 -94 -369 -94q-74 0 -143 17q-238 57 -385 237q-152 180 -172 389q-4 37 -4 70q0 160 98 270q49 62 61 82v8q0 17 -28 45q-21 21 -45 21q-41 0 -82 -53zM401 2175q-69 -135 -69 -262q0 -168 114 -320q37 -41 70 -41q29 0 53 25q21 20 21 45q0 20 -12 41
l-46 70q-28 36 -45 94q-12 37 -12 82q0 20 4 45q8 69 49 180q0 78 -32 90q-17 4 -29 4q-49 0 -66 -53zM1167 2208q-57 0 -86 -58q0 -69 70 -69q152 -17 258 -176q74 -119 184 -136q29 -4 58 -4q73 0 130.5 37t57.5 74q0 12 -8 29q-12 37 -53 37q-33 0 -82 -21
q-29 -12 -54 -12q-53 0 -102 53l-160 168q-73 78 -180 78h-33zM598 2417q-78 0 -78 -82q0 -78 78 -78q90 0 90 78q0 82 -90 82z" />
    <glyph glyph-name="asterisk" unicode="*" horiz-adv-x="1630" 
d="M594 2441v144q0 139 111 200q53 29 106 29t107 -29q106 -61 106 -209v-135l127 78q57 37 115 37q28 0 57 -8q82 -25 127 -99q33 -57 33 -118q0 -21 -4 -41q-21 -82 -119 -148l-119 -78l143 -90q111 -61 111 -172v-16q-8 -123 -119 -184q-49 -25 -98 -25q-70 0 -143 45
l-111 66v-152q0 -139 -106 -197q-54 -28 -107 -28q-57 0 -111 28q-106 54 -106 213v136l-139 -78q-70 -41 -131 -41q-50 0 -91 28q-98 62 -114 177q-4 20 -4 36q0 86 69 136l185 118l-90 50q-140 65 -148 192v16q0 111 90 181q53 41 115 41q45 0 90 -25zM1110 1839
q-20 12 -37 12q-20 0 -33 -24q-4 -12 -4 -21q0 -28 37 -45q37 -16 86 -45q45 -33 74 -37q20 -4 37 -4q45 0 78 33q24 25 24 49q0 17 -12 29q-17 12 -37 12h-8q-25 -4 -49 -12q-13 -4 -21 -4q-12 0 -20 4q-54 16 -115 53zM664 1569q0 -127 98 -152q37 -12 69 -12q50 0 82 29
q21 16 21 41q0 12 -8 24q-17 25 -45 25q-13 0 -25 -4q-25 -13 -45 -13q-45 0 -49 78q0 41 -41 41h-8q-49 -4 -49 -57zM393 1778q-20 -13 -37 -13q-12 0 -24 4q-13 5 -25 5q-20 0 -37 -13q-16 -16 -16 -37q0 -24 25 -45q32 -20 65 -20q41 0 86 29l148 98q20 16 20 37
q0 12 -8 24q-12 21 -33 21q-12 0 -29 -13zM328 2478q-58 0 -58 -53q0 -58 58 -58q57 0 57 58q0 53 -57 53zM279 2208l176 -103q28 -16 49 -16q24 -4 41 16q12 13 12 25q0 20 -29 37q-41 33 -98 61q-61 29 -86 53q-20 17 -41 41q-20 21 -33 25h-12q-12 0 -25 -4
q-28 -8 -28 -37v-16q8 -41 74 -82zM664 2560v-160q0 -41 24 -49q8 -4 17 -4q16 0 32 12q25 17 25 41v168q0 62 -49 62t-49 -70z" />
    <glyph glyph-name="parenleft" unicode="(" horiz-adv-x="1806" 
d="M729 2863q209 217 451 250q32 4 61 4q201 0 328 -172q98 -127 98 -291v-33q-12 -184 -156 -294q-421 -324 -503 -697q-29 -131 -29 -258q0 -229 94 -434q144 -324 381 -492q217 -143 221 -335q0 -197 -114 -336q-144 -164 -324 -164q-197 0 -430 188q-307 234 -549 738
q-188 389 -188 852q0 135 16 274q70 623 643 1200zM561 2400q-303 -495 -323 -946q-5 -61 -5 -123q0 -377 132 -667q147 -336 344 -549q192 -213 323 -283q115 -57 152 -57h12q57 0 78 32q16 21 16 41q0 13 -8 25q-16 25 -74 41q-57 12 -102 37q-242 155 -401 397
q-164 242 -238 471q-74 225 -82 389q-4 74 -4 144q0 221 49 405q62 238 258 578q21 28 41 61q16 29 21 53q0 25 -21 45q-20 21 -45 21q-53 0 -123 -115zM823 2679q-78 0 -78 -78q0 -82 78 -82q82 0 82 82q0 78 -82 78z" />
    <glyph glyph-name="parenright" unicode=")" horiz-adv-x="1806" 
d="M1118 2818q434 -463 553 -942q66 -270 66 -520q0 -197 -41 -381q-99 -422 -299 -729q-205 -307 -398 -447q-221 -159 -397 -184q-20 -4 -41 -4q-155 0 -311 180q-111 123 -111 291v41q17 192 230 340q127 86 258 286.5t184 471.5q16 82 16 163q0 197 -82 402
q-114 291 -450 541q-148 118 -156 290v33q0 152 103 295q123 168 319 168q37 0 78 -4q250 -41 479 -291zM336 2486q364 -348 500 -577q131 -230 131 -566q0 -376 -172 -618q-177 -242 -394 -422q-131 -98 -131 -213v-8q0 -119 82 -225q58 -66 103 -66q24 0 49 25
q12 16 12 32q0 41 -61 95q-49 49 -49 102q0 12 4 25q12 65 53 106q344 291 512 602q131 246 131 549q0 82 -8 168q-17 197 -90 365q-78 168 -168 290q-95 123 -189 222l-188 180q-41 57 -74 90q-12 12 -29 12q-24 0 -49 -20q-20 -17 -20 -49v-17q8 -49 45 -82zM360 2879
q-81 0 -81 -77q0 -74 81 -74q78 0 78 74q0 77 -78 77z" />
    <glyph glyph-name="underscore" unicode="_" 
 />
    <glyph glyph-name="plus" unicode="+" horiz-adv-x="2048" 
d="M897 983v-278q0 -107 53 -144q41 -41 86 -41q41 0 82 33q25 20 25 45q-4 20 -17 33q-8 4 -16 4q-8 4 -20 -4q-33 -17 -54 -17q-45 0 -45 74v295q0 45 -45 49h-8q-41 0 -41 -49zM111 1327q20 -37 53 -37q8 0 16 4q29 9 29 29q0 8 -8 20q-21 29 -21 50q0 20 17 37
q28 32 98 32h8q21 0 29 17q4 8 4 16q0 12 -8 29q-13 20 -49 20q-132 -4 -164 -78q-17 -41 -17 -77q0 -33 13 -62zM897 2023v-327q0 -49 49 -49q45 0 45 49v319q0 49 -45 53h-8q-41 0 -41 -45zM823 1192h-581q-136 0 -189 102q-28 49 -28 99q0 53 28 106q58 103 209 103h561
v520q0 143 103 213q53 32 106 32q49 0 98 -28q103 -62 103 -225v-512h573q148 0 201 -99q25 -49 25 -98q0 -53 -25 -107q-53 -106 -176 -106h-598v-528q0 -152 -103 -201q-45 -21 -90 -21q-57 0 -114 33q-103 62 -103 189v528zM942 2208q-45 0 -45 -41q0 -45 45 -45
q49 0 49 45q0 41 -49 41z" />
    <glyph glyph-name="Q" unicode="Q" horiz-adv-x="3039" 
d="M1217 2134q-127 -37 -127 -102q0 -74 57 -74q24 0 61 16q168 74 324 74q49 0 98 -8q201 -33 352 -164q148 -135 201 -328q25 -86 25 -172q0 -114 -41 -233q0 -4 -4 -33q-9 -29 -13 -49v-8q0 -21 9 -41q12 -25 32 -29h17q61 0 110 143q37 115 37 230q0 168 -74 340
q-122 286 -405 426q-152 69 -324 69q-159 0 -335 -57zM426 2015q-184 -323 -184 -626q0 -308 102 -525q102 -221 242 -368q372 -390 790 -410q54 -4 107 -4q348 0 581 119q123 65 181 73h8q49 0 131 -98q90 -90 201 -90h16q115 4 176 57q41 37 41 78q0 37 -29 58
q-12 8 -28 8q-21 4 -41 -8q-90 -50 -135 -54q-9 0 -17 4q-45 13 -176 131q-53 50 -127 54q-45 0 -98 -21q-139 -53 -262 -106q-189 -66 -377 -66q-152 0 -303 41q-344 94 -566 352q-225 254 -266 615q-8 61 -8 123q0 299 160 602q49 90 49 102v8q0 33 -29 50q-16 8 -33 8
q-20 4 -36 -8q-45 -33 -70 -99zM1520 1896q-226 0 -381.5 -155.5t-155.5 -380.5q0 -217 164 -373q160 -156 381 -156q147 0 270 70q119 70 189 193q69 118 69 266q0 147 -69 274q-70 123 -193 193q-127 69 -274 69zM1585 2802h33q270 0 553 -140q299 -151 512 -421.5
t270 -647.5q13 -90 13 -184q0 -299 -127 -635q204 -164 217 -360v-25q0 -184 -123 -319q-135 -144 -332 -144q-201 0 -377 193q-356 -197 -713 -197h-65q-393 21 -709 234q-319 213 -495 540q-164 295 -164 623q0 37 4 74q41 696 467 1048t1036 361zM672 2298q-78 0 -78 -82
t78 -82q24 0 53 24.5t29 57.5q0 82 -82 82z" />
    <glyph glyph-name="W" unicode="W" horiz-adv-x="3686" 
d="M705 295l-721 1896q-25 74 -25 144q0 98 49 188q82 152 254 217q78 33 160 33q90 0 180 -41q172 -78 270 -324l287 -712l250 721q66 192 201 274q106 66 225 66q29 0 61 -4q283 -29 402 -361l246 -713l311 779q82 204 254 274q94 37 188 37q74 0 152 -25
q172 -57 258 -213q45 -82 45 -180q0 -90 -41 -192l-672 -1831q-114 -308 -397 -336q-25 -4 -49 -4q-131 0 -238 73q-127 86 -172 226l-328 930l-303 -914q-61 -184 -233 -270q-98 -49 -197 -49q-78 0 -155 32q-181 66 -262 279zM135 2265l721 -1888q49 -135 119 -180
q65 -45 160 -45q49 0 73 36q17 21 17 41q0 13 -8 29q-17 33 -74 37q-111 16 -152 123l-721 1888q-16 41 -53 49h-16q-33 0 -54 -20q-16 -17 -16 -41q0 -13 4 -29zM1536 2298l-254 -762q-16 -41 -16 -70q0 -45 37 -57q12 -4 24 -4q57 0 90 74l238 737q16 37 16 65
q0 50 -49 70q-8 4 -16 4q-21 0 -37 -16q-29 -21 -33 -41zM2953 2281l-299 -745q-12 -53 -12 -74v-8q0 -20 37 -37q20 -12 37 -12q53 0 69 90l303 729q9 25 9 45q0 49 -50 66q-12 4 -24 4q-49 0 -70 -58zM1954 1401l356 -1032q74 -217 258 -217h25q61 8 73 69v17q0 45 -65 57
q-119 20 -152 123l-352 999q-29 82 -82 82q-12 0 -24 -4q-33 -12 -41 -25q-4 -8 -4 -20q0 -20 8 -49zM279 2552q32 0 57 -25q24 -24 24 -53q0 -82 -81 -82q-78 0 -78 82q0 20 24 49q25 29 54 29zM1696 2552q82 0 82 -78q0 -33 -29 -57.5t-53 -24.5q-29 0 -54 25
q-24 24 -24 57q0 78 78 78zM3138 2544q-82 0 -82 -78q0 -82 82 -82q20 0 49 24q28 25 28 58q0 78 -77 78z" />
    <glyph glyph-name="E" unicode="E" horiz-adv-x="2105" 
d="M721 2728h721q590 0 590 -401q0 -439 -455 -439h-479v-184h352q172 0 270 -98q99 -99 103 -230v-8q0 -127 -94 -221q-99 -98 -275 -98h-356v-201h438q238 0 369 -127t135 -295v-8q0 -164 -123 -287q-131 -131 -356 -131h-856q-521 0 -521 504v1745q0 479 537 479z
M913 287q-65 0 -65 -58v-8q4 -69 82 -69h622q99 0 189 32q74 25 74 86v17q0 41 -33 61q-13 4 -29 4q-24 0 -49 -16q-70 -49 -160 -49h-631zM1098 1335q-66 0 -66 -61q0 -66 66 -66h381q90 0 131 45q16 21 16 41q4 21 -16 41q-17 25 -37 25q-25 0 -74 -12q-53 -13 -57 -13
h-344zM1151 2175q-119 0 -119 -70q0 -45 29 -53q24 -12 65 -12h426q115 0 189 41q65 33 65 86v8q0 49 -32 66q-17 8 -29 8q-16 0 -33 -8q-16 -17 -29 -29q-12 -12 -41 -25q-28 -12 -90 -12h-401zM352 2216v-1696q0 -151 25 -201q16 -32 49 -36q8 -4 16 -4q25 0 45 16
q25 16 25 49q0 12 -8 45t-8 123v1704q0 102 -70 102q-74 -8 -74 -102zM479 2527q-69 0 -69 -78q0 -82 69 -82q82 0 82 82q0 78 -82 78z" />
    <glyph glyph-name="R" unicode="R" horiz-adv-x="2408" 
d="M193 2265q0 463 520 463h581q312 0 553 -160q238 -160 353 -418q81 -188 81 -393q0 -82 -12 -168q-49 -303 -278 -540l225 -361q78 -127 78 -250q0 -57 -17 -110q-53 -181 -204 -275q-115 -73 -242 -73q-41 0 -86 8q-172 28 -283 205l-364 614v-320q0 -249 -127 -372
t-324 -131h-16q-180 0 -303 135q-135 139 -135 418v1728zM360 2232v-1687q0 -406 254 -418h17q78 0 90 70v12q0 61 -107 78q-77 16 -94 78q-16 57 -16 139v1737q0 49 -33 69q-16 8 -33 8q-20 4 -41 -8q-37 -20 -37 -78zM1090 2175q-54 -4 -54 -53v-17q8 -65 62 -65
q245 0 311 -41q143 -78 143 -311q9 -66 70 -66t66 74v41q0 78 -21 147q-29 86 -94 164q-66 74 -189 115q-73 20 -163 20q-62 0 -131 -8zM1098 1896v-294h94q209 0 209 151q0 143 -209 143h-94zM1110 1081l475 -786q57 -90 107 -115q49 -28 131 -37h12q49 0 78 29
q16 16 16 41q0 12 -4 25q-16 36 -70 49q-118 16 -167 98l-447 758q-37 61 -78 61q-16 0 -33 -12q-36 -25 -36 -62q0 -20 16 -49zM487 2527q-77 0 -77 -86q0 -82 77 -82q25 0 53.5 24.5t28.5 57.5q0 37 -24.5 61.5t-57.5 24.5z" />
    <glyph glyph-name="T" unicode="T" horiz-adv-x="2249" 
d="M418 2736h1278h24q365 0 467 -115q94 -110 94 -290v-33q0 -164 -118 -279q-119 -114 -316 -114h-262v-1450q0 -213 -131 -336q-135 -123 -319 -127h-9q-184 0 -311 123q-135 127 -135 356v1434h-295q-90 0 -184 49q-95 45 -156 131t-61 205v24q0 172 110 295
q115 127 324 127zM1610 2183q-90 0 -94 -65v-9q0 -61 77 -61h262q74 0 152 41q66 33 66 86v8q-13 74 -82 74q-21 -8 -70 -41t-90 -33h-221zM430 2183q-94 0 -143 98q-17 46 -49 46q-13 0 -29 -9q-57 -24 -57 -69v-8q12 -99 102 -144q90 -49 156 -49h254q77 0 81 70v8
q0 57 -65 57h-250zM848 1864v-1352q0 -369 246 -369h24q53 0 78 37q12 17 12 37q0 16 -8 33q-20 33 -74 37q-151 0 -151 217v1360q0 98 -62 102q-65 0 -65 -102zM270 2535q-77 0 -77 -77q0 -82 77 -82q82 0 82 82q0 77 -82 77z" />
    <glyph glyph-name="Y" unicode="Y" horiz-adv-x="2232" 
d="M49 2048q-90 135 -90 262q0 45 12 90q37 168 172 271q115 90 250 90q49 0 99 -13q196 -41 307 -204l319 -463l352 504q107 151 316 168h49q176 0 295 -107q119 -102 151 -266q9 -41 9 -82q0 -119 -74 -225l-647 -938v-639q0 -234 -135 -369q-140 -139 -324 -139
q-188 0 -319 135q-136 131 -136 364v656zM1462 2310l-237 -356q-21 -33 -21 -58q0 -12 4 -24q17 -37 54 -45h16q25 0 41 20l283 394q12 20 12 40q0 17 -8 37q-21 41 -62 45h-8q-41 0 -74 -53zM168 2150l430 -610q225 -328 225 -348v-664q0 -364 275 -376q86 0 90 73v8
q0 66 -82 70q-66 8 -111 53q-45 41 -45 164v697q0 45 -94 192l-254 369l-332 463q-16 36 -28 69q-17 29 -58 33q-49 0 -53 -66v-12q0 -61 37 -115zM262 2552q-78 0 -78 -78q0 -90 78 -90q37 0 66 29q24 24 24 61q0 78 -90 78zM1679 2552q-37 0 -61 -25q-25 -24 -25 -53
q0 -90 86 -90q82 0 82 90q0 78 -82 78z" />
    <glyph glyph-name="U" unicode="U" horiz-adv-x="2634" 
d="M168 2200q0 282 135 421q127 132 299 132h21q208 -9 331 -136q119 -127 119 -344v-1155q0 -184 123 -250q61 -32 123 -32q61 -5 127 32q123 66 123 222v1159q0 250 135 385q131 131 319 131q185 0 320 -127q131 -127 131 -348v-1131q0 -385 -160 -659
q-164 -275 -418 -414t-520 -160h-57q-270 0 -520 131q-283 148 -455 418q-176 266 -176 582v1143zM1720 2224v-1126q0 -131 -118 -316q-21 -24 -21 -49q0 -16 12 -33q21 -36 62 -36q82 4 147 147q62 143 62 287v1126q0 53 -37 78q-17 8 -33 8q-20 4 -37 -8q-37 -21 -37 -78z
M336 2232v-1151q0 -405 241.5 -663t573.5 -316q98 -16 184 -16q213 0 377 98q33 21 33 49q0 17 -8 37q-21 33 -54 33q-20 0 -45 -8q-155 -66 -319 -66q-98 0 -205 25q-274 61 -459 291q-184 229 -184 581v1115q0 73 -65 73q-70 0 -70 -82zM487 2535q82 0 82 -77
q0 -82 -82 -82q-77 0 -77 82q0 77 77 77zM1855 2519q-77 0 -77 -78q0 -82 77 -82q82 0 82 82q0 78 -82 78z" />
    <glyph glyph-name="I" unicode="I" horiz-adv-x="1282" 
d="M496 2535q-78 0 -78 -77q0 -82 78 -82q24 0 53 24q29 25 29 58q0 28 -25 52.5t-57 24.5zM352 2257v-1729q0 -360 246 -385h12q49 0 78 29q17 21 17 45q0 16 -5 33q-16 41 -77 45q-86 12 -111 65q-25 54 -25 168v1721q0 69 -65 73h-8q-62 0 -62 -65zM1090 2208v-1696
q0 -246 -123 -385q-127 -143 -328 -143h-33q-102 0 -192 49q-103 57 -164 184q-66 123 -66 303v1688q0 278 123 413q123 132 332 132t332 -132q119 -135 119 -413z" />
    <glyph glyph-name="O" unicode="O" horiz-adv-x="3039" 
d="M1217 2134q-115 -37 -127 -78v-8q0 -49 32 -70q17 -12 37 -12q25 0 58 16q155 82 311 82q106 0 213 -41q262 -102 393 -356q78 -151 78 -311q0 -107 -37 -213q0 -4 -16.5 -53.5l-16.5 -49.5q0 -41 58 -57h8q37 0 57 33q21 37 45 119q41 110 41 229q0 94 -24 192
q-58 222 -209 390q-156 163 -389 225q-91 20 -185 20q-155 0 -327 -57zM426 2007q-184 -340 -184 -643q0 -115 24 -221q94 -402 320 -647q258 -271 549 -353q208 -57 389 -57q69 0 135 8q229 33 389 115q115 49 115 110q0 17 -13 33q-16 29 -41 29h-8q-33 -4 -98 -37
q-70 -37 -115 -57q-172 -62 -348 -62q-143 0 -291 41q-327 90 -569 352q-242 263 -283 619q-8 61 -8 123q0 295 172 602q33 61 37 86q0 41 -29 66q-16 8 -32 8q-17 4 -33 -8q-45 -25 -78 -107zM1528 1896q-221 0 -377 -155q-160 -160 -160 -381q0 -217 164 -373
q160 -156 381 -156q147 0 270 70q119 70 189 193q69 118 69 266q0 225 -155.5 380.5t-380.5 155.5zM1528 2810q389 0 717 -189q327 -192 520 -520q188 -327 188 -717q0 -389 -188 -725q-189 -335 -516 -532q-328 -201 -721 -201t-729 197q-336 192 -525 524
q-192 332 -192 721q0 381 197 721q196 336 532 528q332 193 717 193zM672 2298q-33 0 -54 -17q-24 -20 -24 -57q0 -82 78 -82q82 0 82 82q0 74 -82 74z" />
    <glyph glyph-name="P" unicode="P" horiz-adv-x="2335" 
d="M201 2257q0 147 90 315q86 164 381 164h631q286 0 520 -147q229 -148 352 -385q106 -217 106 -443v-49q-24 -442 -315 -688q-291 -250 -631 -250h-229v-278q0 -230 -127 -365q-131 -139 -324 -139h-24q-430 0 -430 545v1720zM369 2241v-1696q0 -398 254 -410h12
q49 0 78 29q20 20 20 41q0 16 -12 33q-25 36 -90 49q-119 16 -119 217v1737q0 53 -33 73q-16 8 -33 8q-20 5 -40 -8q-37 -20 -37 -73zM1118 2183q-49 -4 -65 -37q-9 -16 -9 -32q-4 -21 9 -37q16 -37 65 -37q234 0 324 -58q74 -40 98 -94q21 -57 25 -119q4 -65 4 -98
q12 -45 57 -45h16q58 8 70 70q0 205 -131 356q-119 131 -397 131h-66zM1126 1057q-73 0 -77 -66v-8q0 -61 77 -70q45 -4 91 -4q204 0 327 49q148 54 271 168q24 25 24 54q0 20 -16 45q-21 28 -49 28q-25 0 -54 -20q-164 -119 -270 -152q-90 -24 -246 -24h-78zM1098 1905
v-295h61q242 0 242 143q0 152 -201 152h-102zM504 2527q-78 0 -78 -78q0 -32 24.5 -57t53.5 -25q33 0 61 25q29 25 29 57q0 78 -90 78z" />
    <glyph glyph-name="braceleft" unicode="{" 
 />
    <glyph glyph-name="braceright" unicode="}" 
 />
    <glyph glyph-name="bar" unicode="|" 
 />
    <glyph glyph-name="A" unicode="A" horiz-adv-x="2576" 
d="M856 2458q107 213 274 274q74 29 148 29q94 0 184 -45q164 -78 250 -250l856 -1819q58 -115 58 -221q0 -82 -33 -156q-78 -176 -258 -250q-86 -36 -168 -36q-94 0 -189 45q-180 77 -274 331h-832q-98 -249 -278 -331q-94 -41 -184 -41q-86 0 -172 37q-181 77 -250 254
q-29 73 -29 151q0 111 57 234zM1282 1327l-139 -319h282zM1360 1544l250 -569q16 -45 57 -53h16q29 -4 50 16q12 12 12 33q0 16 -8 37l-258 594q-17 36 -54 40q-36 0 -57 -28q-16 -21 -16 -41q0 -12 8 -29zM881 647q-58 0 -78 -33q-8 -16 -8 -32q-4 -21 8 -41q20 -37 69 -37
h783q98 0 139 -33q37 -37 78 -111q110 -229 254 -229q20 0 41 4q49 12 57 66v16q0 37 -33 53q-24 13 -45 13q-24 0 -41 4q-37 4 -106.5 131t-102.5 160q-77 69 -241 69h-774zM942 2273l-790 -1695q-29 -66 -29 -127q0 -74 37 -140q65 -127 184 -159q16 -5 33 -5q24 0 49 17
q33 24 33 65q0 37 -41 50q-82 40 -131 94q-25 24 -25 65q0 49 33 123l778 1663q8 21 8 41q4 21 -8 41q-20 33 -53 33h-8q-41 -8 -70 -66zM1118 2527q-78 0 -78 -86q0 -82 78 -82q82 0 82 82q0 86 -82 86z" />
    <glyph glyph-name="S" unicode="S" horiz-adv-x="2273" 
d="M1106 2810q41 4 82 4q328 0 586 -156q282 -172 282 -458v-9q0 -151 -119 -274q-86 -90 -221 -90q-53 0 -114 12q-132 33 -336 201q-66 53 -119 53q-17 0 -33 -8q-70 -25 -78 -94v-17q0 -61 62 -102q32 -21 233 -90q201 -74 373 -156q168 -86 258 -184q168 -193 201 -459
q8 -61 8 -123q0 -201 -82 -385q-111 -246 -352 -397q-246 -152 -602 -152q-369 13 -611 135q-241 119 -336 295q-73 131 -73 262q0 46 8 91q29 172 156 249q131 82 245 82q29 0 58 -4q131 -28 282 -143q152 -119 201 -139q29 -9 57 -9q49 0 90 33q37 33 37 74q0 29 -16 61
q-41 82 -209 127q-422 119 -618 299q-201 181 -230 508q-4 41 -4 82q0 316 221 570q250 286 713 311zM1073 2367q-65 -28 -78 -69q-4 -17 -4 -29q0 -24 21 -41q20 -16 37 -16q12 0 24 4q37 20 78 20q45 5 90 -20q66 -33 201 -119q131 -90 168 -106q45 -13 86 -13q37 0 73 9
q74 16 119 94q13 33 13 57q0 33 -21 53q-25 33 -53 33q-33 0 -58 -41q-28 -49 -81 -49q-66 0 -177 82q-225 168 -364 168q-41 0 -74 -17zM295 754q-16 -62 -16 -119q0 -164 139 -299q188 -184 520 -242q98 -16 192 -16q144 0 279 37q217 57 352 172q58 49 58 98v8
q-4 49 -50 62h-8q-45 0 -106 -54q-160 -159 -455 -176q-41 -4 -82 -4q-250 0 -446 107q-234 123 -234 319l16.5 45l24.5 66v8q0 20 -8 41q-16 41 -57 41q-17 0 -33 -4q-66 -25 -86 -90zM385 2208q-49 -90 -49 -230q0 -82 16 -180q41 -270 254 -405q176 -107 406 -189
q225 -82 307 -139q74 -53 74 -176v-17v-8q0 -41 32 -61q21 -17 41 -17q17 0 33 13q37 20 37 98v16q0 242 -369 390q-12 4 -180 65q-168 57 -303 156q-135 94 -188 258q-21 61 -21 135q0 115 53 258q13 25 13 45q0 33 -37 53q-12 8 -33 8q-12 0 -25 -4q-32 -16 -61 -69z
M606 2466q-37 0 -61.5 -29t-24.5 -53q0 -78 86 -78q82 0 82 78q0 24 -12 40.5t-29 29.5q-16 12 -41 12z" />
    <glyph glyph-name="D" unicode="D" horiz-adv-x="2785" 
d="M631 2728h577q725 0 1119 -401q385 -402 385 -951v-8q-5 -553 -385 -958q-381 -410 -1053 -410h-586q-221 0 -356 102q-139 99 -139 316v1880q0 209 131 319q131 111 307 111zM1098 1888v-1048h143q217 0 344 90q123 90 172 208.5t49 221.5q0 225 -143 377
q-147 151 -389 151h-176zM942 295q-61 0 -86 -33q-12 -16 -12 -33q0 -16 16 -32q29 -37 82 -37h377q111 0 258 28q147 25 217 70q49 25 53 66v8q0 33 -32 53q-17 8 -37 8q-29 0 -66 -16q-160 -82 -336 -82h-434zM352 2232v-1769q0 -184 74 -184q16 0 37 8q45 12 45 65
q0 25 -12 58q-17 57 -17 143v1671q0 103 -53 103q-74 0 -74 -95zM1110 2183q-66 -4 -86 -41q-8 -16 -8 -28q0 -21 16 -37q25 -29 74 -29h12q45 4 86 4q254 0 414 -90q184 -102 262 -258q78 -160 82 -311q0 -156 -41 -242q-12 -25 -12 -45q0 -21 8 -41q16 -41 49 -41
q62 0 115 152q20 77 20 172q0 118 -33 258q-61 249 -294 430q-197 151 -537 151q-61 0 -127 -4zM487 2535q-36 0 -61 -24.5t-25 -52.5q0 -91 86 -91q82 0 82 91q0 28 -24.5 52.5t-57.5 24.5z" />
    <glyph glyph-name="F" unicode="F" horiz-adv-x="2089" 
d="M487 2511q-77 0 -77 -70q0 -82 77 -82q82 0 82 82q0 33 -24 53q-29 17 -58 17zM1151 2167q-119 0 -119 -62q0 -73 86 -73h443q241 0 254 143q0 41 -33 66q-17 12 -29 12q-20 0 -41 -21q-86 -65 -160 -65h-401zM721 2728h721q311 0 446 -98q135 -103 144 -312
q0 -176 -111 -303t-344 -127h-487v-192h360q172 0 270 -99q99 -98 103 -229v-8q0 -127 -90 -221q-99 -99 -271 -99h-372v-553q0 -249 -119 -376t-332 -127q-455 0 -455 577v1688q0 205 127 344q123 135 410 135zM352 2224v-1712q0 -360 246 -385h16q82 0 99 66v16
q4 57 -99 70q-127 20 -127 241v1696q0 98 -57 98h-8q-70 -4 -70 -90zM1106 1335q-74 0 -74 -65q0 -70 74 -70h373q90 0 131 45q16 21 16 41q4 25 -16 49q-17 21 -49 21q-17 0 -33 -4q-62 -17 -86 -17h-336z" />
    <glyph glyph-name="G" unicode="G" horiz-adv-x="2744" 
d="M1544 2810q344 -4 619 -144q274 -139 364 -315q53 -102 53 -205q0 -78 -32 -155q-82 -181 -262 -250q-82 -33 -160 -33q-98 0 -197 53q-200 123 -360 144q-29 4 -58 4q-131 0 -254 -78q-217 -131 -249 -365q-9 -53 -9 -106q0 -164 91 -287q159 -213 376 -233q33 -4 66 -4
q176 0 315 106h-176q-213 0 -303 164q-49 82 -49 168q0 78 41 156q86 159 319 163h529q209 0 331.5 -114.5t122.5 -335.5v-455q0 -323 -368 -536q-373 -218 -758 -218q-393 0 -725 192.5t-528 528.5q-197 332 -197 721t201 725q196 332 540 529q320 180 672 180h45z
M1184 2114q-94 -41 -94 -99q0 -16 8 -33q16 -28 53 -28q29 0 74 20q123 66 295 70h16q160 0 287 -62l164 -86q61 -36 127 -36h8q61 0 135 45q61 41 74 90v12q0 37 -41 66q-9 8 -21 8q-20 0 -41 -17q-37 -24 -53 -32q-33 -21 -61 -21q-29 0 -58 17l-127 69q-131 70 -332 94
q-32 4 -69 4q-168 0 -344 -81zM430 1999q-172 -324 -172 -639q0 -98 16 -197q70 -409 365 -696q291 -287 688 -356q107 -21 213 -21q287 0 565 143q78 33 78 86q0 17 -8 33q-16 41 -45 41q-21 0 -49 -16q-262 -139 -533 -139q-90 0 -184 16q-373 61 -639 324
q-266 258 -319 626q-13 78 -13 156q0 291 176 594q25 49 25 82q4 32 -25 53q-16 8 -32 8q-54 0 -107 -98zM1479 1294q-4 -20 -4 -41q0 -65 41 -102q53 -53 131 -53h192q111 0 135 -37q25 -41 41 -119q4 -57 58 -61h8q45 0 65 49q8 16 8 41q0 49 -32 119q-58 143 -283 143
h-176q-16 0 -29 12q-8 4 -8 12q0 9 4 17q25 37 25 61q0 33 -37 58q-16 8 -33 8q-24 0 -53 -17q-49 -32 -53 -90zM672 2281q-78 0 -78 -81q0 -78 78 -78q82 0 82 78q0 81 -82 81z" />
    <glyph glyph-name="H" unicode="H" horiz-adv-x="2744" 
d="M1929 2535q-33 0 -57.5 -28.5t-24.5 -48.5q0 -82 82 -82q78 0 78 82q0 28 -25 53q-24 24 -53 24zM360 2257v-1729q0 -368 246 -385h8q58 0 86 33q25 25 25 53q0 9 -4 21q-16 41 -74 45q-151 8 -151 233v1729q0 49 -33 65q-17 9 -33 9q-20 0 -37 -13q-33 -20 -33 -61z
M1098 2290v-484h549v418q0 258 135 402q127 135 311 135h8q185 -4 320 -131q131 -127 131 -340v-1737q0 -274 -127 -414q-131 -143 -316 -151h-24q-172 0 -299 114q-139 123 -139 316v532h-549v-454q0 -246 -135 -377q-132 -131 -312 -131h-8q-188 4 -324 143
q-135 135 -135 381v1753q0 234 139.5 365t319.5 135h8q172 0 307 -123q140 -127 140 -352zM1798 2265v-459q0 -41 37 -57q16 -8 33 -8q16 0 37 8q32 16 32 57v459q0 41 -32 57q-17 9 -33 9q-21 0 -37 -9q-37 -16 -37 -57zM1098 1257q-74 0 -74 -69q0 -70 74 -70h549
q98 0 127 -61q24 -66 24 -107v-454q0 -353 266 -353h9q45 0 65 29q16 21 16 49q0 12 -4 25q-16 37 -61 41q-70 16 -111 49t-41 135v479q0 307 -290 307h-549zM496 2535q82 0 82 -77q0 -82 -82 -82q-70 0 -70 82q0 77 70 77z" />
    <glyph glyph-name="J" unicode="J" horiz-adv-x="2343" 
d="M930 1040q0 -209 180 -209q90 0 127 62q37 57 37 213v1135q0 249 127 380q123 132 311 132h17q454 0 454 -562v-1151q0 -528 -336 -823q-323 -287 -753 -287h-33q-451 13 -758 349q-274 294 -274 794q0 66 4 135q24 324 246 430q102 50 204 50q115 0 230 -66
q217 -127 217 -397v-185zM193 1192q-5 -70 -5 -135q0 -295 115 -504q139 -262 385 -373q205 -98 422 -98q37 0 74 4q250 20 418 156q28 20 28 53q0 20 -8 41q-20 37 -49 37t-62 -29q-110 -98 -323 -119q-41 -4 -78 -4q-172 0 -344 74q-213 90 -340 315q-102 181 -102 443
q0 61 4 123q0 90 -66 90h-12q-45 0 -57 -74zM344 1479q-86 0 -86 -78q0 -90 86 -90q82 0 82 90q0 24 -12.5 40.5t-28.5 28.5q-16 9 -41 9zM1434 2249v-1209q0 -82 -9 -114q-12 -37 -24 -49q-17 -17 -25 -29q-12 -17 -12 -33q0 -20 12 -37q25 -33 58 -33q135 0 135 328v1135
q0 98 -74 110q-61 0 -61 -69zM1561 2527q-82 0 -82 -78q0 -82 82 -82q77 0 77 82q0 78 -77 78z" />
    <glyph glyph-name="K" unicode="K" horiz-adv-x="2568" 
d="M184 2265q0 229 139.5 360.5t323.5 135.5h8q176 0 312 -123q139 -131 139 -357v-475l496 738q122 184 299 209q36 4 69 4q139 0 262 -78q156 -99 205 -266q12 -50 12 -99q0 -119 -82 -241l-462 -680l536 -680q111 -144 111 -283q0 -82 -41 -164q-107 -221 -348 -270
q-49 -8 -99 -8q-180 0 -303 147l-655 823v-479q0 -225 -135 -356t-324 -135h-8q-188 0 -320 127q-135 131 -135 381v1769zM360 2241v-1696q0 -406 246 -418q58 0 90 37q21 20 21 45q0 12 -8 29q-21 36 -86 49q-127 16 -127 200v1754q0 77 -66 81h-8q-62 0 -62 -81zM496 2535
q-37 0 -62 -24q-24 -25 -24 -62q0 -32 28 -57q29 -25 58 -25q24 0 53 25t29 57q0 37 -25 61.5t-57 24.5zM1855 2535q-77 0 -77 -86q0 -82 77 -82q82 0 82 82q0 86 -82 86zM1638 2327l-520 -766q-16 -29 -16 -54q0 -37 37 -57q20 -12 37 -12q32 0 57 41l520 778q16 24 16 45
q0 16 -8 33q-16 37 -53 37q-41 0 -70 -45zM1249 1057l639 -824q74 -98 193 -98h24q66 12 74 74v12q0 45 -49 58q-12 4 -41 8q-29 0 -57 12q-29 8 -50 37l-630 799q-29 41 -58 41q-20 0 -37 -17q-28 -24 -28 -53q0 -25 20 -49z" />
    <glyph glyph-name="L" unicode="L" horiz-adv-x="1982" 
d="M193 2265q0 225 126 352q127 127 304 136q467 0 467 -594v-1311h471q237 0 364 -143q111 -123 111 -279q0 -25 -4 -49q-21 -164 -144 -271q-123 -106 -311 -106h-930q-188 0 -319 131q-135 127 -135 332v1802zM913 287q-53 0 -73 -33q-9 -16 -9 -33q0 -20 13 -37
q20 -32 69 -32h615q192 0 266 73q25 29 25 62q0 24 -17 49q-16 29 -45 29q-24 0 -53 -21q-29 -16 -57 -37q-33 -20 -78 -20h-656zM344 2241v-1778q0 -127 49 -176q25 -13 41 -13q25 0 45 21q25 20 25 45t-12 70q-13 41 -13 45v1786q0 81 -57 81h-8q-70 -4 -70 -81zM471 2527
q-78 0 -78 -69q0 -82 78 -82q82 0 82 82q0 69 -82 69z" />
    <glyph glyph-name="colon" unicode=":" horiz-adv-x="1024" 
d="M520 2032q185 0 307 -127q123 -127 123 -303q0 -185 -123 -308q-127 -127 -307 -127q-172 0 -299 127t-127 308q0 172 127 303q123 127 299 127zM328 1794q-74 -90 -74 -180v-17q8 -102 49 -155q86 -103 193 -111q28 -4 53 -4q65 0 106 25q50 24 50 61q0 17 -9 33
q-20 33 -61 33q-21 0 -49 -9q-29 -8 -54 -8q-36 0 -69 21q-57 33 -70 98q-4 12 -4 25q0 49 41 98q33 33 33 57q0 29 -33 54q-20 12 -41 12q-33 0 -61 -33zM520 782q180 0 303 -123q119 -127 119 -299q0 -184 -123 -307q-127 -127 -307 -127q-172 0 -299 127t-127 307
q0 177 127 299q127 123 307 123zM319 553q-69 -90 -69 -180v-25q12 -102 53 -155q86 -103 189 -107h36q74 0 119 24.5t49 61.5v8q0 33 -28 49q-21 13 -45 13q-17 0 -37 -9q-33 -12 -62 -12q-65 0 -110 66q-29 41 -29 82q0 49 41 94q29 33 29 57q0 29 -29 49q-20 17 -41 17
q-33 0 -66 -33z" />
    <glyph glyph-name="quotedbl" unicode="&#x22;" horiz-adv-x="1962" 
d="M193 2634q40 82 139 147q74 53 180 53q29 0 57 -4q336 -28 336 -405v-33q4 -90 8 -205q0 -119 -24 -266q-25 -152 -144 -229q-98 -66 -213 -66q-24 0 -49 4q-147 12 -241 115q-107 119 -107 446q0 328 58 443zM369 2359q0 58 -41 58h-9q-49 -4 -49 -74q-16 -111 -16 -193
q0 -49 4 -86q8 -135 29 -192q65 -119 192 -119q49 0 107 16q73 25 73 82q0 41 -41 41q-12 0 -32 -4q-54 -12 -99 -12q-32 0 -57 8q-57 17 -61 172q4 78 4 168t-4 135zM303 2585q-33 -21 -33 -45q0 -21 25 -46q12 -20 41 -20q20 0 49 12q21 17 25 49v17q0 20 -9 33
q-16 24 -41 24q-24 0 -57 -24zM1135 2634q41 82 139 147q74 53 180 53q29 0 57 -4q344 -24 344 -438v-213t-24 -258q-25 -156 -139 -229q-99 -66 -213 -66q-25 0 -49 4q-144 12 -238 115q-102 115 -107 430v41q0 283 50 418zM1311 2359q0 58 -37 58h-8q-49 -4 -49 -74
q-13 -119 -13 -197q0 -49 4 -82q0 -131 25 -192q49 -90 135 -107q41 -8 78 -8q41 0 82 12q82 25 82 74v8q-4 41 -49 41q-17 0 -33 -4q-53 -16 -98 -16q-29 0 -54 8q-61 16 -65 176q0 49 4 156v61q0 58 -4 86zM1249 2585q-28 -17 -28 -45q0 -21 20 -46q21 -20 45 -20
q21 0 41 12q29 21 33 54v8q0 24 -17 37q-16 20 -36 20q-25 4 -58 -20z" />
    <glyph glyph-name="Z" unicode="Z" horiz-adv-x="2466" 
d="M553 2728h1241q274 0 410 -115q131 -114 131 -270q0 -160 -86 -287l-856 -1208h487q295 0 401 -139q103 -144 103 -283q0 -426 -496 -426h-1360q-159 0 -290 102q-132 99 -156 258q-4 29 -4 62q0 131 98 266l840 1208h-512q-262 0 -377 209q-57 103 -57 205q0 107 61 213
q115 205 422 205zM545 2191q-127 0 -176 74q-29 37 -58 37q-20 0 -41 -16q-24 -21 -24 -54q-4 -32 24 -73q78 -103 336 -103h426q111 0 111 66q0 69 -111 69h-487zM889 303q-98 0 -98 -70q0 -73 98 -73h1032q246 0 246 119q0 32 -21 53q-20 20 -41 20q-20 0 -61 -24.5
t-70 -24.5h-1085zM1143 1786l-864 -1233q-58 -74 -58 -152q0 -49 21 -98q24 -53 69 -53h17q57 8 65 53v8q0 25 -12 66q-8 20 -8 41q0 20 12 37l881 1274q37 45 41 155v17q0 94 -58 131q-24 16 -45 16q-24 4 -45 -16q-20 -21 -20 -45q0 -17 12 -33q25 -41 25 -82
q0 -45 -33 -86zM352 2527q-82 0 -82 -86q0 -82 82 -82q86 0 86 82q0 37 -24.5 61.5t-61.5 24.5z" />
    <glyph glyph-name="X" unicode="X" horiz-adv-x="2408" 
d="M639 1409l-438 590q-115 164 -115 311v41q12 164 139 283q135 123 320 123h24q201 -13 369 -230l270 -360l336 418q127 163 307 176h25q160 0 291 -99q135 -110 172 -282q8 -37 8 -74q0 -135 -98 -266l-463 -631l495 -664q119 -151 119 -307q0 -28 -4 -57
q-29 -188 -168 -303q-127 -107 -278 -107h-33q-176 13 -315 189l-394 495l-393 -503q-123 -160 -299 -168h-33q-159 0 -286 102q-144 111 -168 299q-4 33 -4 66q0 155 118 311zM1319 770l385 -512q90 -123 217 -123h33q57 4 65 70v12q0 49 -57 53l-45 9q-29 4 -53.5 16
t-48.5 49l-373 504q-33 57 -78 61q-49 0 -61 -41q-5 -12 -5 -28q0 -33 21 -70zM1528 2306l-209 -266q-25 -29 -25 -58q0 -28 25 -53q24 -16 45 -16q29 0 53 24l213 271q33 45 33 78q0 24 -25 41q-20 24 -45 24q-28 0 -65 -45zM287 2167l483 -647q37 -54 41 -90v-21
q0 -20 -4 -33q-8 -20 -25 -49l-495 -631q-107 -143 -107 -254v-16q4 -119 86 -188q78 -74 152 -86h8q45 0 70 28q20 21 20 49v17q-12 37 -61 41q-90 16 -123 102q-13 33 -13 66q0 49 33 98l537 696q61 78 61 164q0 98 -78 205l-454 623q-17 24 -25 45q-12 20 -24 32
q-13 9 -33 9h-17q-49 0 -61 -50q-4 -12 -4 -24q0 -37 33 -86zM393 2544q-90 0 -90 -78q0 -90 90 -90q78 0 78 90q0 28 -25 53q-24 25 -53 25zM1737 2511q-82 0 -82 -70q0 -82 82 -82q69 0 69 82q0 70 -69 70z" />
    <glyph glyph-name="C" unicode="C" horiz-adv-x="2830" 
d="M1528 2802q393 0 704 -164q308 -164 488 -471q65 -107 65 -221q0 -50 -12 -103q-45 -172 -176 -270q-119 -90 -262 -90h-33q-164 8 -295 155q-229 271 -475 271q-143 0 -291 -94q-205 -119 -237 -349q-9 -53 -9 -102q0 -164 95 -291q184 -237 405 -237q29 0 61 4
q259 37 426 233q148 172 328 172q41 0 86 -8q230 -49 340 -262q53 -98 53 -193q0 -110 -69 -213q-180 -274 -500 -458q-319 -185 -692 -185q-389 0 -721 192.5t-524 528.5q-197 332 -197 713q0 393 192.5 725t532.5 528q328 189 700 189h17zM1208 2134q-78 -20 -102 -66
q-12 -20 -12 -40q0 -21 12 -37q16 -29 49 -29q21 0 45 12q172 90 336 90q70 0 139 -16q230 -57 365 -209l98 -102q45 -49 98 -78q50 -29 107 -29q53 0 143 33q49 20 70 66q8 16 8 32q0 25 -20 45q-25 21 -45 21q-21 0 -41 -12q-25 -17 -50 -29q-24 -12 -49 -12
q-82 0 -176 114q-123 164 -373 262q-118 45 -254 45q-159 0 -348 -61zM430 2015q-176 -344 -176 -667q0 -99 16 -193q70 -414 361 -696q287 -283 680 -357q119 -24 237 -24q275 0 541 123q111 49 111 102q0 16 -9 33q-24 37 -61 37q-29 0 -66 -21q-249 -127 -516 -127
q-94 0 -188 17q-365 57 -623 311q-262 250 -323 623q-17 90 -17 180q0 286 156 590q37 69 37 110q0 25 -12 41q-13 17 -33 17q-17 0 -37 -13q-49 -24 -78 -86zM680 2298q-82 0 -82 -82t82 -82t82 82t-82 82z" />
    <glyph glyph-name="V" unicode="V" horiz-adv-x="2576" 
d="M0 2114q-45 102 -45 200q0 82 33 160q69 168 241 246q90 41 185 41q78 0 159 -29q177 -70 275 -307l434 -1024l463 1065q94 213 266 274q78 29 156 29q94 0 184 -41q168 -78 242 -254q28 -78 28 -160q0 -106 -53 -225l-872 -1856q-74 -159 -242 -221q-86 -32 -172 -32
q-82 0 -164 28q-168 58 -246 225zM1815 2298l-431 -1032q-16 -29 -16 -54q0 -20 12 -36q17 -33 45 -33h17q41 8 69 65l435 1016q12 33 12 62q0 20 -8 41q-17 32 -49 32h-17q-45 -8 -69 -61zM119 2208l856 -1848q90 -184 258 -217h8q82 0 98 70q4 12 4 20q0 54 -69 62
q-139 8 -176 131l-848 1831q-29 57 -66 65h-8q-33 0 -53 -32q-12 -25 -12 -49q0 -17 8 -33zM242 2527q77 0 77 -78q0 -82 -77 -82q-90 0 -90 82q0 78 90 78zM1999 2544q-78 0 -78 -78q0 -90 78 -90q37 0 65 28q25 25 25 62q0 78 -90 78z" />
    <glyph glyph-name="B" unicode="B" horiz-adv-x="2425" 
d="M631 2736h721q299 0 528 -196q229 -201 287 -500q16 -78 16 -152q0 -217 -127 -426q221 -205 279 -458q20 -99 20 -193q0 -152 -53 -291q-90 -229 -295 -373q-209 -147 -471 -147h-831q-287 0 -398 143q-114 140 -114 303v1852q0 160 122 299q119 139 316 139zM352 2257
v-1811q0 -127 54 -151q24 -12 45 -12q24 -4 45 12q20 20 20 61q0 17 -4 37q-25 82 -25 193v1671q0 45 -32 65q-17 9 -33 9q-21 0 -37 -9q-33 -16 -33 -65zM913 295q-65 0 -65 -57v-9q4 -69 57 -69h672q152 0 238 65q40 25 40 62q0 12 -4 24q-16 54 -57 58h-8q-25 0 -86 -33
q-74 -41 -180 -41h-607zM1098 1073v-225h196q156 0 156 110q-12 115 -193 115h-159zM1110 1360q-53 0 -70 -33q-8 -12 -8 -24q0 -21 17 -41q24 -37 61 -37h193q163 0 241 -95q66 -81 66 -192v-33v-8q0 -70 69 -70q70 0 74 78q4 33 4 66q0 131 -82 246q-102 143 -393 143
h-172zM1098 1896v-217h110q74 0 119 21q41 20 41 86q0 110 -168 110h-102zM1098 2183q-66 -8 -66 -61v-13q8 -61 66 -61h8q41 4 78 4q344 0 344 -307q0 -82 57 -82q70 0 86 82q4 20 4 49q0 57 -20 135q-37 115 -172 197q-107 61 -287 61q-45 0 -98 -4zM487 2535
q-32 0 -53 -24q-24 -25 -24 -62q0 -32 24 -57q25 -25 53 -25q82 0 82 82q0 86 -82 86z" />
    <glyph glyph-name="N" unicode="N" horiz-adv-x="2810" 
d="M1720 1696v569q0 217 119 348t303 140h25q184 0 315 -123q135 -131 135 -373v-1761q0 -164 -61 -287q-66 -123 -172.5 -176t-212.5 -53q-49 0 -98 12q-156 33 -279 192l-696 897v-594q0 -241 -131 -376q-131 -131 -316 -131h-8q-188 4 -319 143q-131 135 -131 373v1810
q0 193 139 328q135 131 323 131h9q188 -4 335 -189zM352 2257v-1737q0 -360 246 -377h16q45 0 70 25q21 20 21 49v16q-5 29 -74 54q-70 20 -94 41q-50 41 -50 200v1721q0 78 -65 78q-70 0 -70 -70zM1864 2241v-721q0 -95 65 -95q70 0 70 103v704q0 95 -70 95q-65 0 -65 -86z
M1135 1294l831 -1044q45 -57 94 -74q45 -16 90 -16q70 0 78 65v17q0 49 -53 53q-70 0 -127 74l-799 1007q-24 33 -57 33h-8q-37 -8 -54 -41q-8 -16 -8 -33q0 -20 13 -41zM487 2527q-77 0 -77 -69q0 -82 77 -82q74 0 74 82q0 28 -20.5 48.5t-53.5 20.5zM1991 2544
q-78 0 -78 -78q0 -82 78 -82q24 0 53 24q29 25 29 58q0 78 -82 78z" />
    <glyph glyph-name="M" unicode="M" horiz-adv-x="3400" 
d="M401 2367q29 164 140 271q106 102 262 123q28 4 57 4q123 0 234 -66q135 -86 217 -274l385 -881l446 959q78 155 213 217q90 41 189 41q45 0 90 -8q319 -66 381 -463l315 -1762q12 -61 12 -114q0 -144 -82 -246q-110 -143 -294 -168q-41 -4 -78 -4q-144 0 -262 74
q-152 94 -193 290l-98 496l-168 -479q-111 -348 -414 -385q-45 -4 -86 -4q-291 0 -401 307l-209 553l-66 -430q-33 -246 -192 -348q-123 -78 -258 -78q-41 0 -86 8q-181 25 -287 184q-82 119 -82 283q0 57 8 119zM553 2249l-320 -1737q-8 -45 -8 -86q0 -111 70 -176
q90 -86 184 -98h13q57 0 90 32q20 25 20 54q0 12 -4 24q-12 33 -57 33h-21q-151 0 -151 127q0 24 8 57l319 1745q4 17 4 33q0 70 -61 86q-8 4 -16 4q-54 0 -70 -98zM1143 1106l250 -713q86 -241 286 -241q37 0 66 20q24 21 29 45q0 25 -21 53q-24 25 -57 25q-74 0 -107 29
q-37 28 -61 106l-262 737q-21 62 -66 62q-12 0 -24 -4q-50 -13 -50 -58q0 -24 17 -61zM2449 1106l119 -688q45 -254 254 -275h8q45 0 74 33q21 25 21 49q0 8 -5 21q-16 37 -65 41q-127 24 -152 168l-118 663q-17 58 -62 58h-12q-25 0 -45 -21q-17 -16 -17 -41v-8zM2191 2281
l-393 -880q-4 -17 -4 -29q0 -45 49 -65q12 -4 25 -4q45 0 78 65l372 848q13 25 13 45q0 33 -25 57q-20 17 -45 21q-8 0 -16 -4q-37 -13 -54 -54zM705 2560q-91 0 -91 -82q0 -86 91 -86q28 0 52.5 24.5t24.5 61.5q0 25 -8 41q-12 16 -29 29q-16 12 -40 12zM2367 2527
q-86 0 -86 -78q0 -82 86 -82q82 0 82 82q0 78 -82 78z" />
    <glyph glyph-name="less" unicode="&#x3c;" 
 />
    <glyph glyph-name="greater" unicode="&#x3e;" 
 />
    <glyph glyph-name="question" unicode="?" horiz-adv-x="1962" 
d="M193 2134q-5 -33 -5 -66q0 -106 62 -180q78 -98 201 -110h32q103 0 172 69q33 21 33 54q0 24 -16 53q-21 24 -45 24q-33 0 -74 -32q-37 -29 -74 -29q-20 0 -41 8q-61 17 -90 78q-16 33 -16 70q0 28 12 61q4 16 4 33q0 28 -20 49q-21 16 -45 16q-17 0 -33 -8
q-45 -24 -57 -90zM897 2208q-70 -8 -70 -62q0 -12 4 -24q5 -29 37 -41q21 -13 37 -13q8 0 17 5h16q131 0 197 -66q69 -70 82 -176v-41q0 -86 -25 -143q-8 -21 -8 -37q0 -17 12 -29q16 -16 45 -20q8 0 16 4q37 8 62 57q37 86 37 180q0 45 -8 94q-29 140 -148 234
q-106 82 -250 82q-24 0 -53 -4zM840 1470q-103 -65 -111 -188v-16q0 -111 94 -176q86 -50 201 -50q115 -4 262 50q62 12 90 53q17 20 17 41q0 16 -9 33q-12 24 -53 24q-45 4 -123 -24q-102 -33 -176 -33q-33 0 -61 4q-94 20 -99 82v8q0 53 78 90q33 21 33 57v9q-8 41 -49 57
q-12 4 -25 4q-32 0 -69 -25zM958 2802q398 0 688.5 -287t290.5 -684q0 -406 -241 -676q-246 -270 -680 -274q-250 0 -373 176q-74 102 -74 213q0 78 33 155q82 197 365 263q82 20 98 81q4 13 4 25q0 49 -33 86q-32 41 -78 41q-12 0 -24 -4q-66 -16 -119 -111
q-98 -172 -283 -188h-45q-159 -4 -290 98q-156 111 -172 291q-5 29 -5 57q0 172 111 332q123 180 344 295q221 111 483 111zM975 774q184 0 311 -123q123 -127 123 -299q0 -180 -127 -307t-307 -127q-172 0 -295 131q-127 127 -127 303q0 168 123 295t299 127zM782 545
q-73 -90 -73 -189q0 -82 53 -172q86 -102 188 -106h25q86 0 135 24q45 25 49 62q0 37 -33 57q-16 12 -41 12q-16 0 -36 -8q-37 -16 -70 -16q-66 0 -107 65q-28 41 -28 82q0 50 45 99q29 37 29 61q0 29 -29 45q-25 21 -45 21q-33 0 -62 -37zM401 2425q-36 0 -57 -25
q-25 -24 -25 -65q0 -78 82 -78q78 0 78 78q0 90 -78 90z" />
  </font>
</defs>
</svg>
